<?xml version="1.0" encoding="UTF-8" standalone="yes"?><svg xmlns="http://www.w3.org/2000/svg" xmlns:xlink="http://www.w3.org/1999/xlink" height="1208px" style="width:222px;height:1208px;" version="1.1" viewBox="0 0 222 1208" width="222px"><defs><filter height="300%" id="f1" width="300%" x="-1" y="-1"><feGaussianBlur result="blurOut" stdDeviation="2.0"/><feColorMatrix in="blurOut" result="blurOut2" type="matrix" values="0 0 0 0 0 0 0 0 0 0 0 0 0 0 0 0 0 0 .4 0"/><feOffset dx="4.0" dy="4.0" in="blurOut2" result="blurOut3"/><feBlend in="SourceGraphic" in2="blurOut3" mode="normal"/></filter></defs><g><ellipse cx="68" cy="18" fill="#000000" filter="url(#f1)" rx="10" ry="10" style="stroke: none; stroke-width: 1.0;"/><rect fill="#FEFECE" filter="url(#f1)" height="78.8867" rx="12.5" ry="12.5" style="stroke: #A80036; stroke-width: 1.5;" width="100" x="18" y="105"/><line style="stroke: #A80036; stroke-width: 1.5;" x1="18" x2="118" y1="131.4883" y2="131.4883"/><text fill="#000000" font-family="sans-serif" font-size="14" lengthAdjust="spacingAndGlyphs" textLength="67" x="34.5" y="123.5352">initialized</text><text fill="#000000" font-family="sans-serif" font-size="12" lengthAdjust="spacingAndGlyphs" textLength="80" x="23" y="148.0898">isReady: false</text><text fill="#000000" font-family="sans-serif" font-size="12" lengthAdjust="spacingAndGlyphs" textLength="78" x="23" y="162.2227">isActive: false</text><text fill="#000000" font-family="sans-serif" font-size="12" lengthAdjust="spacingAndGlyphs" textLength="70" x="23" y="176.3555">isBusy: false</text><rect fill="#FEFECE" filter="url(#f1)" height="78.8867" rx="12.5" ry="12.5" style="stroke: #A80036; stroke-width: 1.5;" width="98" x="19" y="261"/><line style="stroke: #A80036; stroke-width: 1.5;" x1="19" x2="117" y1="287.4883" y2="287.4883"/><text fill="#000000" font-family="sans-serif" font-size="14" lengthAdjust="spacingAndGlyphs" textLength="38" x="49" y="279.5352">ready</text><text fill="#000000" font-family="sans-serif" font-size="12" lengthAdjust="spacingAndGlyphs" textLength="76" x="24" y="304.0898">isReady: true</text><text fill="#000000" font-family="sans-serif" font-size="12" lengthAdjust="spacingAndGlyphs" textLength="78" x="24" y="318.2227">isActive: false</text><text fill="#000000" font-family="sans-serif" font-size="12" lengthAdjust="spacingAndGlyphs" textLength="70" x="24" y="332.3555">isBusy: false</text><rect fill="#FEFECE" filter="url(#f1)" height="78.8867" rx="12.5" ry="12.5" style="stroke: #A80036; stroke-width: 1.5;" width="124" x="6" y="417"/><line style="stroke: #A80036; stroke-width: 1.5;" x1="6" x2="130" y1="443.4883" y2="443.4883"/><text fill="#000000" font-family="sans-serif" font-size="14" lengthAdjust="spacingAndGlyphs" textLength="104" x="16" y="435.5352">start_transition</text><text fill="#000000" font-family="sans-serif" font-size="12" lengthAdjust="spacingAndGlyphs" textLength="76" x="11" y="460.0898">isReady: true</text><text fill="#000000" font-family="sans-serif" font-size="12" lengthAdjust="spacingAndGlyphs" textLength="74" x="11" y="474.2227">isActive: true</text><text fill="#000000" font-family="sans-serif" font-size="12" lengthAdjust="spacingAndGlyphs" textLength="66" x="11" y="488.3555">isBusy: true</text><rect fill="#FEFECE" filter="url(#f1)" height="78.8867" rx="12.5" ry="12.5" style="stroke: #A80036; stroke-width: 1.5;" width="96" x="20" y="573"/><line style="stroke: #A80036; stroke-width: 1.5;" x1="20" x2="116" y1="599.4883" y2="599.4883"/><text fill="#000000" font-family="sans-serif" font-size="14" lengthAdjust="spacingAndGlyphs" textLength="55" x="40.5" y="591.5352">running</text><text fill="#000000" font-family="sans-serif" font-size="12" lengthAdjust="spacingAndGlyphs" textLength="76" x="25" y="616.0898">isReady: true</text><text fill="#000000" font-family="sans-serif" font-size="12" lengthAdjust="spacingAndGlyphs" textLength="74" x="25" y="630.2227">isActive: true</text><text fill="#000000" font-family="sans-serif" font-size="12" lengthAdjust="spacingAndGlyphs" textLength="70" x="25" y="644.3555">isBusy: false</text><rect fill="#FEFECE" filter="url(#f1)" height="78.8867" rx="12.5" ry="12.5" style="stroke: #A80036; stroke-width: 1.5;" width="123" x="6.5" y="729"/><line style="stroke: #A80036; stroke-width: 1.5;" x1="6.5" x2="129.5" y1="755.4883" y2="755.4883"/><text fill="#000000" font-family="sans-serif" font-size="14" lengthAdjust="spacingAndGlyphs" textLength="103" x="16.5" y="747.5352">stop_transition</text><text fill="#000000" font-family="sans-serif" font-size="12" lengthAdjust="spacingAndGlyphs" textLength="76" x="11.5" y="772.0898">isReady: true</text><text fill="#000000" font-family="sans-serif" font-size="12" lengthAdjust="spacingAndGlyphs" textLength="78" x="11.5" y="786.2227">isActive: false</text><text fill="#000000" font-family="sans-serif" font-size="12" lengthAdjust="spacingAndGlyphs" textLength="66" x="11.5" y="800.3555">isBusy: true</text><rect fill="#FEFECE" filter="url(#f1)" height="78.8867" rx="12.5" ry="12.5" style="stroke: #A80036; stroke-width: 1.5;" width="98" x="19" y="885"/><line style="stroke: #A80036; stroke-width: 1.5;" x1="19" x2="117" y1="911.4883" y2="911.4883"/><text fill="#000000" font-family="sans-serif" font-size="14" lengthAdjust="spacingAndGlyphs" textLength="56" x="40" y="903.5352">stopped</text><text fill="#000000" font-family="sans-serif" font-size="12" lengthAdjust="spacingAndGlyphs" textLength="76" x="24" y="928.0898">isReady: true</text><text fill="#000000" font-family="sans-serif" font-size="12" lengthAdjust="spacingAndGlyphs" textLength="78" x="24" y="942.2227">isActive: false</text><text fill="#000000" font-family="sans-serif" font-size="12" lengthAdjust="spacingAndGlyphs" textLength="70" x="24" y="956.3555">isBusy: false</text><rect fill="#FEFECE" filter="url(#f1)" height="78.8867" rx="12.5" ry="12.5" style="stroke: #A80036; stroke-width: 1.5;" width="98" x="19" y="1041"/><line style="stroke: #A80036; stroke-width: 1.5;" x1="19" x2="117" y1="1067.4883" y2="1067.4883"/><text fill="#000000" font-family="sans-serif" font-size="14" lengthAdjust="spacingAndGlyphs" textLength="75" x="30.5" y="1059.5352">terminated</text><text fill="#000000" font-family="sans-serif" font-size="12" lengthAdjust="spacingAndGlyphs" textLength="76" x="24" y="1084.0898">isReady: true</text><text fill="#000000" font-family="sans-serif" font-size="12" lengthAdjust="spacingAndGlyphs" textLength="78" x="24" y="1098.2227">isActive: false</text><text fill="#000000" font-family="sans-serif" font-size="12" lengthAdjust="spacingAndGlyphs" textLength="70" x="24" y="1112.3555">isBusy: false</text><ellipse cx="68" cy="1191" fill="none" filter="url(#f1)" rx="10" ry="10" style="stroke: #000000; stroke-width: 1.0;"/><ellipse cx="68.5" cy="1191.5" fill="#000000" rx="6" ry="6" style="stroke: none; stroke-width: 1.0;"/><path d="M68,28.36 C68,43.41 68,73.95 68,99.79 " fill="none" style="stroke: #A80036; stroke-width: 1.0;"/><polygon fill="#A80036" points="68,104.89,72,95.89,68,99.89,64,95.89,68,104.89" style="stroke: #A80036; stroke-width: 1.0;"/><text fill="#000000" font-family="sans-serif" font-size="13" lengthAdjust="spacingAndGlyphs" textLength="37" x="69" y="71.5684">new ()</text><path d="M68,184.36 C68,206.147 68,233.384 68,255.896 " fill="none" style="stroke: #A80036; stroke-width: 1.0;"/><polygon fill="#A80036" points="68,260.919,72,251.919,68,255.919,64,251.919,68,260.919" style="stroke: #A80036; stroke-width: 1.0;"/><text fill="#000000" font-family="sans-serif" font-size="13" lengthAdjust="spacingAndGlyphs" textLength="46" x="69" y="227.5684">create()</text><path d="M68,340.361 C68,362.147 68,389.384 68,411.896 " fill="none" style="stroke: #A80036; stroke-width: 1.0;"/><polygon fill="#A80036" points="68,416.919,72,407.919,68,411.919,64,407.919,68,416.919" style="stroke: #A80036; stroke-width: 1.0;"/><text fill="#000000" font-family="sans-serif" font-size="13" lengthAdjust="spacingAndGlyphs" textLength="37" x="69" y="383.5684">start()</text><path d="M68,496.361 C68,518.147 68,545.384 68,567.896 " fill="none" style="stroke: #A80036; stroke-width: 1.0;"/><polygon fill="#A80036" points="68,572.919,72,563.919,68,567.919,64,563.919,68,572.919" style="stroke: #A80036; stroke-width: 1.0;"/><text fill="#000000" font-family="sans-serif" font-size="13" lengthAdjust="spacingAndGlyphs" textLength="51" x="69" y="539.5684">update()</text><path d="M116.18,597.947 C135.153,597.214 151,602.064 151,612.5 C151,621.957 137.985,626.828 121.423,627.112 " fill="none" style="stroke: #A80036; stroke-width: 1.0;"/><polygon fill="#A80036" points="116.18,627.053,125.1349,631.153,121.1797,627.1087,125.224,623.1535,116.18,627.053" style="stroke: #A80036; stroke-width: 1.0;"/><text fill="#000000" font-family="sans-serif" font-size="13" lengthAdjust="spacingAndGlyphs" textLength="51" x="157" y="617.5684">update()</text><path d="M68,652.361 C68,674.147 68,701.384 68,723.896 " fill="none" style="stroke: #A80036; stroke-width: 1.0;"/><polygon fill="#A80036" points="68,728.919,72,719.919,68,723.919,64,719.919,68,728.919" style="stroke: #A80036; stroke-width: 1.0;"/><text fill="#000000" font-family="sans-serif" font-size="13" lengthAdjust="spacingAndGlyphs" textLength="36" x="69" y="695.5684">stop()</text><path d="M129.719,753.883 C149.162,754.106 164.5,758.979 164.5,768.5 C164.5,777.129 151.903,781.939 135.07,782.932 " fill="none" style="stroke: #A80036; stroke-width: 1.0;"/><polygon fill="#A80036" points="129.719,783.117,138.8519,786.8035,134.716,782.9441,138.5753,778.8083,129.719,783.117" style="stroke: #A80036; stroke-width: 1.0;"/><text fill="#000000" font-family="sans-serif" font-size="13" lengthAdjust="spacingAndGlyphs" textLength="51" x="170.5" y="773.5684">update()</text><path d="M68,808.361 C68,830.147 68,857.384 68,879.896 " fill="none" style="stroke: #A80036; stroke-width: 1.0;"/><polygon fill="#A80036" points="68,884.919,72,875.919,68,879.919,64,875.919,68,884.919" style="stroke: #A80036; stroke-width: 1.0;"/><text fill="#000000" font-family="sans-serif" font-size="13" lengthAdjust="spacingAndGlyphs" textLength="51" x="69" y="851.5684">update()</text><path d="M68,964.361 C68,986.147 68,1013.384 68,1035.896 " fill="none" style="stroke: #A80036; stroke-width: 1.0;"/><polygon fill="#A80036" points="68,1040.919,72,1031.919,68,1035.919,64,1031.919,68,1040.919" style="stroke: #A80036; stroke-width: 1.0;"/><text fill="#000000" font-family="sans-serif" font-size="13" lengthAdjust="spacingAndGlyphs" textLength="68" x="69" y="1007.5684">terminate()</text><path d="M68,1120.0585 C68,1139.4166 68,1161.6911 68,1175.8027 " fill="none" style="stroke: #A80036; stroke-width: 1.0;"/><polygon fill="#A80036" points="68,1180.965,72,1171.965,68,1175.965,64,1171.965,68,1180.965" style="stroke: #A80036; stroke-width: 1.0;"/></g></svg>