<?xml version="1.0" encoding="UTF-8" standalone="yes"?><svg xmlns="http://www.w3.org/2000/svg" xmlns:xlink="http://www.w3.org/1999/xlink" height="783px" style="width:2489px;height:783px;" version="1.1" viewBox="0 0 2489 783" width="2489px"><defs><filter height="300%" id="f1" width="300%" x="-1" y="-1"><feGaussianBlur result="blurOut" stdDeviation="2.0"/><feColorMatrix in="blurOut" result="blurOut2" type="matrix" values="0 0 0 0 0 0 0 0 0 0 0 0 0 0 0 0 0 0 .4 0"/><feOffset dx="4.0" dy="4.0" in="blurOut2" result="blurOut3"/><feBlend in="SourceGraphic" in2="blurOut3" mode="normal"/></filter></defs><g><ellipse cx="916" cy="18" fill="#000000" filter="url(#f1)" rx="10" ry="10" style="stroke: none; stroke-width: 1.0;"/><rect fill="#FEFECE" filter="url(#f1)" height="50" rx="12.5" ry="12.5" style="stroke: #A80036; stroke-width: 1.5;" width="98" x="867" y="89"/><line style="stroke: #A80036; stroke-width: 1.5;" x1="867" x2="965" y1="115.4883" y2="115.4883"/><text fill="#000000" font-family="sans-serif" font-size="14" lengthAdjust="spacingAndGlyphs" textLength="78" x="877" y="107.5352">Scene_Boot</text><rect fill="#FEFECE" filter="url(#f1)" height="50" rx="12.5" ry="12.5" style="stroke: #A80036; stroke-width: 1.5;" width="97" x="867.5" y="216"/><line style="stroke: #A80036; stroke-width: 1.5;" x1="867.5" x2="964.5" y1="242.4883" y2="242.4883"/><text fill="#000000" font-family="sans-serif" font-size="14" lengthAdjust="spacingAndGlyphs" textLength="77" x="877.5" y="234.5352">Scene_Title</text><rect fill="#FEFECE" filter="url(#f1)" height="50" rx="12.5" ry="12.5" style="stroke: #A80036; stroke-width: 1.5;" width="96" x="704" y="470"/><line style="stroke: #A80036; stroke-width: 1.5;" x1="704" x2="800" y1="496.4883" y2="496.4883"/><text fill="#000000" font-family="sans-serif" font-size="14" lengthAdjust="spacingAndGlyphs" textLength="76" x="714" y="488.5352">Scene_Map</text><rect fill="#FEFECE" filter="url(#f1)" height="50" rx="12.5" ry="12.5" style="stroke: #A80036; stroke-width: 1.5;" width="100" x="852" y="343"/><line style="stroke: #A80036; stroke-width: 1.5;" x1="852" x2="952" y1="369.4883" y2="369.4883"/><text fill="#000000" font-family="sans-serif" font-size="14" lengthAdjust="spacingAndGlyphs" textLength="80" x="862" y="361.5352">Scene_Load</text><rect fill="#FEFECE" filter="url(#f1)" height="50" rx="12.5" ry="12.5" style="stroke: #A80036; stroke-width: 1.5;" width="121" x="2161.5" y="724"/><line style="stroke: #A80036; stroke-width: 1.5;" x1="2161.5" x2="2282.5" y1="750.4883" y2="750.4883"/><text fill="#000000" font-family="sans-serif" font-size="14" lengthAdjust="spacingAndGlyphs" textLength="101" x="2171.5" y="742.5352">Scene_Options</text><rect fill="#FEFECE" filter="url(#f1)" height="50" rx="12.5" ry="12.5" style="stroke: #A80036; stroke-width: 1.5;" width="105" x="1210.5" y="597"/><line style="stroke: #A80036; stroke-width: 1.5;" x1="1210.5" x2="1315.5" y1="623.4883" y2="623.4883"/><text fill="#000000" font-family="sans-serif" font-size="14" lengthAdjust="spacingAndGlyphs" textLength="85" x="1220.5" y="615.5352">Scene_Menu</text><rect fill="#FEFECE" filter="url(#f1)" height="50" rx="12.5" ry="12.5" style="stroke: #A80036; stroke-width: 1.5;" width="105" x="165.5" y="597"/><line style="stroke: #A80036; stroke-width: 1.5;" x1="165.5" x2="270.5" y1="623.4883" y2="623.4883"/><text fill="#000000" font-family="sans-serif" font-size="14" lengthAdjust="spacingAndGlyphs" textLength="85" x="175.5" y="615.5352">Scene_Battle</text><rect fill="#FEFECE" filter="url(#f1)" height="50" rx="12.5" ry="12.5" style="stroke: #A80036; stroke-width: 1.5;" width="112" x="650" y="597"/><line style="stroke: #A80036; stroke-width: 1.5;" x1="650" x2="762" y1="623.4883" y2="623.4883"/><text fill="#000000" font-family="sans-serif" font-size="14" lengthAdjust="spacingAndGlyphs" textLength="92" x="660" y="615.5352">Scene_Debug</text><rect fill="#FEFECE" filter="url(#f1)" height="50" rx="12.5" ry="12.5" style="stroke: #A80036; stroke-width: 1.5;" width="106" x="364" y="597"/><line style="stroke: #A80036; stroke-width: 1.5;" x1="364" x2="470" y1="623.4883" y2="623.4883"/><text fill="#000000" font-family="sans-serif" font-size="14" lengthAdjust="spacingAndGlyphs" textLength="86" x="374" y="615.5352">Scene_Name</text><rect fill="#FEFECE" filter="url(#f1)" height="50" rx="12.5" ry="12.5" style="stroke: #A80036; stroke-width: 1.5;" width="102" x="868" y="597"/><line style="stroke: #A80036; stroke-width: 1.5;" x1="868" x2="970" y1="623.4883" y2="623.4883"/><text fill="#000000" font-family="sans-serif" font-size="14" lengthAdjust="spacingAndGlyphs" textLength="82" x="878" y="615.5352">Scene_Shop</text><rect fill="#FEFECE" filter="url(#f1)" height="50" rx="12.5" ry="12.5" style="stroke: #A80036; stroke-width: 1.5;" width="97" x="1499.5" y="724"/><line style="stroke: #A80036; stroke-width: 1.5;" x1="1499.5" x2="1596.5" y1="750.4883" y2="750.4883"/><text fill="#000000" font-family="sans-serif" font-size="14" lengthAdjust="spacingAndGlyphs" textLength="77" x="1509.5" y="742.5352">Scene_Item</text><rect fill="#FEFECE" filter="url(#f1)" height="50" rx="12.5" ry="12.5" style="stroke: #A80036; stroke-width: 1.5;" width="98" x="615" y="724"/><line style="stroke: #A80036; stroke-width: 1.5;" x1="615" x2="713" y1="750.4883" y2="750.4883"/><text fill="#000000" font-family="sans-serif" font-size="14" lengthAdjust="spacingAndGlyphs" textLength="78" x="625" y="742.5352">Scene_Save</text><rect fill="#FEFECE" filter="url(#f1)" height="50" rx="12.5" ry="12.5" style="stroke: #A80036; stroke-width: 1.5;" width="132" x="1739" y="724"/><line style="stroke: #A80036; stroke-width: 1.5;" x1="1739" x2="1871" y1="750.4883" y2="750.4883"/><text fill="#000000" font-family="sans-serif" font-size="14" lengthAdjust="spacingAndGlyphs" textLength="112" x="1749" y="742.5352">Scene_GameEnd</text><rect fill="#FEFECE" filter="url(#f1)" height="50" rx="12.5" ry="12.5" style="stroke: #A80036; stroke-width: 1.5;" width="95" x="1251.5" y="724"/><line style="stroke: #A80036; stroke-width: 1.5;" x1="1251.5" x2="1346.5" y1="750.4883" y2="750.4883"/><text fill="#000000" font-family="sans-serif" font-size="14" lengthAdjust="spacingAndGlyphs" textLength="75" x="1261.5" y="742.5352">Scene_Skill</text><rect fill="#FEFECE" filter="url(#f1)" height="50" rx="12.5" ry="12.5" style="stroke: #A80036; stroke-width: 1.5;" width="106" x="339" y="724"/><line style="stroke: #A80036; stroke-width: 1.5;" x1="339" x2="445" y1="750.4883" y2="750.4883"/><text fill="#000000" font-family="sans-serif" font-size="14" lengthAdjust="spacingAndGlyphs" textLength="86" x="349" y="742.5352">Scene_Equip</text><rect fill="#FEFECE" filter="url(#f1)" height="50" rx="12.5" ry="12.5" style="stroke: #A80036; stroke-width: 1.5;" width="109" x="969.5" y="724"/><line style="stroke: #A80036; stroke-width: 1.5;" x1="969.5" x2="1078.5" y1="750.4883" y2="750.4883"/><text fill="#000000" font-family="sans-serif" font-size="14" lengthAdjust="spacingAndGlyphs" textLength="89" x="979.5" y="742.5352">Scene_Status</text><rect fill="#FEFECE" filter="url(#f1)" height="50" rx="12.5" ry="12.5" style="stroke: #A80036; stroke-width: 1.5;" width="136" x="26" y="724"/><line style="stroke: #A80036; stroke-width: 1.5;" x1="26" x2="162" y1="750.4883" y2="750.4883"/><text fill="#000000" font-family="sans-serif" font-size="14" lengthAdjust="spacingAndGlyphs" textLength="116" x="36" y="742.5352">Scene_Gameover</text><path d="M916,28.013 C916,40.698 916,64.409 916,83.57 " fill="none" style="stroke: #A80036; stroke-width: 1.0;"/><polygon fill="#A80036" points="916,88.84,920,79.84,916,83.84,912,79.84,916,88.84" style="stroke: #A80036; stroke-width: 1.0;"/><path d="M916,139.101 C916,159.593 916,189.076 916,210.884 " fill="none" style="stroke: #A80036; stroke-width: 1.0;"/><polygon fill="#A80036" points="916,215.973,920,206.973,916,210.973,912,206.973,916,215.973" style="stroke: #A80036; stroke-width: 1.0;"/><text fill="#000000" font-family="sans-serif" font-size="13" lengthAdjust="spacingAndGlyphs" textLength="187" x="917" y="182.5684">on complete resource loading</text><path d="M867.258,262.169 C833.776,278.726 791.464,305.563 769,343 C746.517,380.469 746.011,432.666 748.455,464.846 " fill="none" style="stroke: #A80036; stroke-width: 1.0;"/><polygon fill="#A80036" points="748.87,469.834,752.1105,460.5335,748.4557,464.8512,744.138,461.1964,748.87,469.834" style="stroke: #A80036; stroke-width: 1.0;"/><text fill="#000000" font-family="sans-serif" font-size="13" lengthAdjust="spacingAndGlyphs" textLength="63" x="770" y="373.0684">new game</text><path d="M930.903,266.293 C937.456,279.995 942.712,297.438 938,313 C935.3,321.917 930.589,330.707 925.447,338.522 " fill="none" style="stroke: #A80036; stroke-width: 1.0;"/><polygon fill="#A80036" points="922.556,342.759,930.9332,337.58,925.3745,338.6291,924.3254,333.0704,922.556,342.759" style="stroke: #A80036; stroke-width: 1.0;"/><text fill="#000000" font-family="sans-serif" font-size="13" lengthAdjust="spacingAndGlyphs" textLength="55" x="941" y="309.5684">continue</text><path d="M866.981,342.92 C852.559,329.847 840.901,312.929 849,296 C853.82,285.924 861.54,277.127 870.054,269.723 " fill="none" style="stroke: #A80036; stroke-width: 1.0;"/><polygon fill="#A80036" points="874.288,266.2,864.8112,268.8815,870.4444,269.398,869.928,275.0312,874.288,266.2" style="stroke: #A80036; stroke-width: 1.0;"/><text fill="#000000" font-family="sans-serif" font-size="13" lengthAdjust="spacingAndGlyphs" textLength="79" x="850" y="309.5684">cancel (prev)</text><path d="M964.809,242.515 C1196.8,245.145 2182.24,258.456 2314,296 C2375.45,313.508 2439,303.108 2439,367 C2439,367 2439,367 2439,623 C2439,693.6572 2351.55,724.9799 2287.68,738.434 " fill="none" style="stroke: #A80036; stroke-width: 1.0;"/><polygon fill="#A80036" points="2282.74,739.4496,2292.3642,741.5413,2287.6361,738.4356,2290.7418,733.7075,2282.74,739.4496" style="stroke: #A80036; stroke-width: 1.0;"/><text fill="#000000" font-family="sans-serif" font-size="13" lengthAdjust="spacingAndGlyphs" textLength="48" x="2440" y="500.0684">options</text><path d="M2244.97,723.8871 C2252.48,715.018 2260.34,704.5516 2266,694 C2281.61,664.884 2288,656.036 2288,623 C2288,367 2288,367 2288,367 C2288,299.596 1223.94,253.967 969.959,244.036 " fill="none" style="stroke: #A80036; stroke-width: 1.0;"/><polygon fill="#A80036" points="964.83,243.836,973.6666,248.1852,969.8262,244.0317,973.9796,240.1913,964.83,243.836" style="stroke: #A80036; stroke-width: 1.0;"/><text fill="#000000" font-family="sans-serif" font-size="13" lengthAdjust="spacingAndGlyphs" textLength="79" x="2289" y="500.0684">cancel (prev)</text><path d="M873.078,393.101 C847.866,414.112 811.31,444.575 784.969,466.526 " fill="none" style="stroke: #A80036; stroke-width: 1.0;"/><polygon fill="#A80036" points="780.833,469.973,790.3082,467.286,784.6747,466.7728,785.1879,461.1393,780.833,469.973" style="stroke: #A80036; stroke-width: 1.0;"/><text fill="#000000" font-family="sans-serif" font-size="13" lengthAdjust="spacingAndGlyphs" textLength="101" x="837" y="436.5684">on load success</text><path d="M800.258,497.762 C920.157,502.612 1224.24,517.975 1256,550 C1266.56,560.653 1268.7,577.12 1268.01,591.514 " fill="none" style="stroke: #A80036; stroke-width: 1.0;"/><polygon fill="#A80036" points="1267.65,596.709,1272.2761,588.0142,1268.0034,591.7215,1264.2961,587.4488,1267.65,596.709" style="stroke: #A80036; stroke-width: 1.0;"/><text fill="#000000" font-family="sans-serif" font-size="13" lengthAdjust="spacingAndGlyphs" textLength="118" x="1267" y="563.5684">trigger menu input</text><path d="M1210.3,603.218 C1155.73,584.957 1074.04,558.095 1042,550 C960.305,529.359 863.83,512.944 805.32,503.85 " fill="none" style="stroke: #A80036; stroke-width: 1.0;"/><polygon fill="#A80036" points="800.127,503.046,808.4098,508.3747,805.0682,503.8103,809.6326,500.4687,800.127,503.046" style="stroke: #A80036; stroke-width: 1.0;"/><text fill="#000000" font-family="sans-serif" font-size="13" lengthAdjust="spacingAndGlyphs" textLength="145" x="1096" y="563.5684">cancel command (prev)</text><path d="M703.842,496.969 C598.242,499.809 349.93,510.6 277,550 C259.084,559.679 244.419,577.239 234.191,592.473 " fill="none" style="stroke: #A80036; stroke-width: 1.0;"/><polygon fill="#A80036" points="231.425,596.7,239.7005,591.36,234.1631,592.5164,233.0067,586.979,231.425,596.7" style="stroke: #A80036; stroke-width: 1.0;"/><text fill="#000000" font-family="sans-serif" font-size="13" lengthAdjust="spacingAndGlyphs" textLength="51" x="278" y="563.5684">encount</text><path d="M703.647,497.098 C664.605,500.854 611.892,513.042 585,550 C564.344,578.388 605.309,597.317 645.052,608.439 " fill="none" style="stroke: #A80036; stroke-width: 1.0;"/><polygon fill="#A80036" points="649.888,609.757,642.2559,603.532,645.0638,608.4427,640.1531,611.2507,649.888,609.757" style="stroke: #A80036; stroke-width: 1.0;"/><text fill="#000000" font-family="sans-serif" font-size="13" lengthAdjust="spacingAndGlyphs" textLength="122" x="586" y="563.5684">trigger debug input</text><path d="M714.842,596.973 C722.407,576.416 733.316,546.772 741.358,524.919 " fill="none" style="stroke: #A80036; stroke-width: 1.0;"/><polygon fill="#A80036" points="743.131,520.101,736.268,527.1649,741.4036,524.7931,743.7754,529.9288,743.131,520.101" style="stroke: #A80036; stroke-width: 1.0;"/><text fill="#000000" font-family="sans-serif" font-size="13" lengthAdjust="spacingAndGlyphs" textLength="79" x="733" y="563.5684">cancel (prev)</text><path d="M703.742,498.985 C650.796,503.872 564.502,516.671 498,550 C476.886,560.582 456.89,578.004 442.048,592.941 " fill="none" style="stroke: #A80036; stroke-width: 1.0;"/><polygon fill="#A80036" points="438.389,596.679,447.543,593.0452,441.8865,593.1058,441.8259,587.4493,438.389,596.679" style="stroke: #A80036; stroke-width: 1.0;"/><text fill="#000000" font-family="sans-serif" font-size="13" lengthAdjust="spacingAndGlyphs" textLength="72" x="499" y="563.5684">game event</text><path d="M366.401,596.917 C345.218,583.639 328.505,566.534 343,550 C366.099,523.651 592.888,506.03 698.452,499.191 " fill="none" style="stroke: #A80036; stroke-width: 1.0;"/><polygon fill="#A80036" points="703.693,498.854,694.4545,495.4408,698.7033,499.1754,694.9687,503.4243,703.693,498.854" style="stroke: #A80036; stroke-width: 1.0;"/><text fill="#000000" font-family="sans-serif" font-size="13" lengthAdjust="spacingAndGlyphs" textLength="121" x="344" y="563.5684">on complete  (prev)</text><path d="M800.372,502.076 C854.253,509.954 936.274,525.641 955,550 C964.924,562.908 958.089,578.973 947.819,592.555 " fill="none" style="stroke: #A80036; stroke-width: 1.0;"/><polygon fill="#A80036" points="944.536,596.684,953.2675,592.1277,947.6473,592.7699,947.005,587.1496,944.536,596.684" style="stroke: #A80036; stroke-width: 1.0;"/><text fill="#000000" font-family="sans-serif" font-size="13" lengthAdjust="spacingAndGlyphs" textLength="72" x="961" y="563.5684">game event</text><path d="M886.9,596.973 C858.744,575.898 817.827,545.271 788.447,523.281 " fill="none" style="stroke: #A80036; stroke-width: 1.0;"/><polygon fill="#A80036" points="784.199,520.101,789.0078,528.6961,788.2021,523.0969,793.8013,522.2911,784.199,520.101" style="stroke: #A80036; stroke-width: 1.0;"/><text fill="#000000" font-family="sans-serif" font-size="13" lengthAdjust="spacingAndGlyphs" textLength="79" x="847" y="563.5684">cancel (prev)</text><path d="M1315.56,624.403 C1394.57,627.746 1538.12,639.023 1570,677 C1579.91,688.8103 1575.78,705.0641 1568.55,719.0402 " fill="none" style="stroke: #A80036; stroke-width: 1.0;"/><polygon fill="#A80036" points="1566,723.6829,1573.8399,717.7217,1568.4079,719.3009,1566.8287,713.869,1566,723.6829" style="stroke: #A80036; stroke-width: 1.0;"/><text fill="#000000" font-family="sans-serif" font-size="13" lengthAdjust="spacingAndGlyphs" textLength="94" x="1577" y="690.5684">item command</text><path d="M1508.85,723.9326 C1483.97,709.2329 1450.76,690.6944 1420,677 C1387.88,662.701 1350.73,649.769 1320.63,640.147 " fill="none" style="stroke: #A80036; stroke-width: 1.0;"/><polygon fill="#A80036" points="1315.86,638.632,1323.2261,645.1696,1320.6252,640.1461,1325.6487,637.5453,1315.86,638.632" style="stroke: #A80036; stroke-width: 1.0;"/><text fill="#000000" font-family="sans-serif" font-size="13" lengthAdjust="spacingAndGlyphs" textLength="79" x="1454" y="690.5684">cancel (prev)</text><path d="M1315.65,622.732 C1477.8,622.468 1967.61,626.022 2117,677 C2144.3,686.3162 2171.17,704.7078 2190.9,720.4379 " fill="none" style="stroke: #A80036; stroke-width: 1.0;"/><polygon fill="#A80036" points="2195.25,723.9561,2190.7658,715.1873,2191.3617,720.8127,2185.7363,721.4085,2195.25,723.9561" style="stroke: #A80036; stroke-width: 1.0;"/><text fill="#000000" font-family="sans-serif" font-size="13" lengthAdjust="spacingAndGlyphs" textLength="107" x="2152" y="690.5684">option command</text><path d="M2161.21,731.3084 C2122.95,720.7444 2072.54,706.7259 2028,694 C2002.17,686.6204 1996.43,681.827 1970,677 C1731.95,633.516 1442.61,624.973 1321.12,623.349 " fill="none" style="stroke: #A80036; stroke-width: 1.0;"/><polygon fill="#A80036" points="1315.81,623.281,1324.7637,627.3836,1320.8097,623.3381,1324.8551,619.3841,1315.81,623.281" style="stroke: #A80036; stroke-width: 1.0;"/><text fill="#000000" font-family="sans-serif" font-size="13" lengthAdjust="spacingAndGlyphs" textLength="79" x="2029" y="690.5684">cancel (prev)</text><path d="M1210.36,627.747 C1154.83,632.714 1064.78,640.657 987,647 C943.241,650.568 622.843,644.798 593,677 C579.175,691.9179 592.7,707.9859 611.517,721.0569 " fill="none" style="stroke: #A80036; stroke-width: 1.0;"/><polygon fill="#A80036" points="615.867,723.9694,610.6132,715.6389,611.712,721.188,606.1629,722.2868,615.867,723.9694" style="stroke: #A80036; stroke-width: 1.0;"/><text fill="#000000" font-family="sans-serif" font-size="13" lengthAdjust="spacingAndGlyphs" textLength="94" x="594" y="690.5684">save command</text><path d="M698.992,723.8314 C724.025,707.8021 759.147,687.7981 793,677 C831.455,664.734 1087.98,639.465 1205,628.395 " fill="none" style="stroke: #A80036; stroke-width: 1.0;"/><polygon fill="#A80036" points="1210.13,627.911,1200.8019,624.7509,1205.151,628.3683,1201.5336,632.7174,1210.13,627.911" style="stroke: #A80036; stroke-width: 1.0;"/><text fill="#000000" font-family="sans-serif" font-size="13" lengthAdjust="spacingAndGlyphs" textLength="190" x="794" y="690.5684">on save success |cancel (prev)</text><path d="M1315.73,624.097 C1449.32,627.419 1792.97,639.557 1827,677 C1837.45,688.4971 1833.2,704.8829 1825.78,719.0167 " fill="none" style="stroke: #A80036; stroke-width: 1.0;"/><polygon fill="#A80036" points="1823.15,723.7132,1831.0285,717.8031,1825.5864,719.347,1824.0425,713.9049,1823.15,723.7132" style="stroke: #A80036; stroke-width: 1.0;"/><text fill="#000000" font-family="sans-serif" font-size="13" lengthAdjust="spacingAndGlyphs" textLength="127" x="1834" y="690.5684">game end command</text><path d="M1771.15,723.9582 C1746.93,707.9871 1712.9,688.0006 1680,677 C1556.7,635.775 1403.15,625.774 1321.1,623.505 " fill="none" style="stroke: #A80036; stroke-width: 1.0;"/><polygon fill="#A80036" points="1315.8,623.367,1324.6942,627.5971,1320.7983,623.4956,1324.8999,619.5997,1315.8,623.367" style="stroke: #A80036; stroke-width: 1.0;"/><text fill="#000000" font-family="sans-serif" font-size="13" lengthAdjust="spacingAndGlyphs" textLength="79" x="1721" y="690.5684">cancel (prev)</text><path d="M1239.97,647.05 C1229.65,660.828 1221.34,678.4232 1229,694 C1234,704.1802 1241.95,712.9831 1250.73,720.3555 " fill="none" style="stroke: #A80036; stroke-width: 1.0;"/><polygon fill="#A80036" points="1255.09,723.8595,1250.5733,715.1074,1251.1901,720.7305,1245.5669,721.3473,1255.09,723.8595" style="stroke: #A80036; stroke-width: 1.0;"/><text fill="#000000" font-family="sans-serif" font-size="13" lengthAdjust="spacingAndGlyphs" textLength="93" x="1230" y="690.5684">skill command</text><path d="M1319.14,723.7451 C1328.1,709.9014 1335.18,692.3081 1328,677 C1323.29,666.956 1315.69,658.134 1307.31,650.688 " fill="none" style="stroke: #A80036; stroke-width: 1.0;"/><polygon fill="#A80036" points="1303.15,647.144,1307.4077,656.025,1306.9563,650.3862,1312.5952,649.9348,1303.15,647.144" style="stroke: #A80036; stroke-width: 1.0;"/><text fill="#000000" font-family="sans-serif" font-size="13" lengthAdjust="spacingAndGlyphs" textLength="79" x="1332" y="690.5684">cancel (prev)</text><path d="M1210.38,628.017 C1154.87,633.205 1064.83,641.328 987,647 C873.771,655.252 582.543,635.172 477,677 C453.765,686.2083 432.211,704.3702 416.622,720.0192 " fill="none" style="stroke: #A80036; stroke-width: 1.0;"/><polygon fill="#A80036" points="412.789,723.9367,421.942,720.3004,416.2855,720.3625,416.2233,714.706,412.789,723.9367" style="stroke: #A80036; stroke-width: 1.0;"/><text fill="#000000" font-family="sans-serif" font-size="13" lengthAdjust="spacingAndGlyphs" textLength="101" x="478" y="690.5684">equip command</text><path d="M368.607,723.929 C356.852,708.9519 347.499,690.1136 360,677 C384.063,651.759 952.206,649.344 987,647 C1062.43,641.918 1149.28,634.029 1205.09,628.696 " fill="none" style="stroke: #A80036; stroke-width: 1.0;"/><polygon fill="#A80036" points="1210.39,628.188,1201.0529,625.0545,1205.4123,628.6595,1201.8073,633.0188,1210.39,628.188" style="stroke: #A80036; stroke-width: 1.0;"/><text fill="#000000" font-family="sans-serif" font-size="13" lengthAdjust="spacingAndGlyphs" textLength="79" x="361" y="690.5684">cancel (prev)</text><path d="M1210.46,637.032 C1180.54,646.172 1142.96,659.635 1112,677 C1090.85,688.8627 1069.62,705.8091 1053.31,720.1708 " fill="none" style="stroke: #A80036; stroke-width: 1.0;"/><polygon fill="#A80036" points="1049.28,723.7617,1058.6606,720.7609,1053.0131,720.4355,1053.3386,714.788,1049.28,723.7617" style="stroke: #A80036; stroke-width: 1.0;"/><text fill="#000000" font-family="sans-serif" font-size="13" lengthAdjust="spacingAndGlyphs" textLength="105" x="1113" y="690.5684">status command</text><path d="M1004.113,723.9434 C994.405,709.1572 986.956,690.5216 998,677 C1023.62,645.635 1135.04,632.02 1205,626.476 " fill="none" style="stroke: #A80036; stroke-width: 1.0;"/><polygon fill="#A80036" points="1210.38,626.059,1201.0982,622.7653,1205.3949,626.4448,1201.7154,630.7415,1210.38,626.059" style="stroke: #A80036; stroke-width: 1.0;"/><text fill="#000000" font-family="sans-serif" font-size="13" lengthAdjust="spacingAndGlyphs" textLength="79" x="999" y="690.5684">cancel (prev)</text><path d="M63.2219,723.7463 C37.8452,700.804 6,663.871 6,623 C6,367 6,367 6,367 C6,280.013 667.047,250.502 862.313,243.682 " fill="none" style="stroke: #A80036; stroke-width: 1.0;"/><polygon fill="#A80036" points="867.396,243.506,858.2631,239.8195,862.399,243.6789,858.5397,247.8147,867.396,243.506" style="stroke: #A80036; stroke-width: 1.0;"/><text fill="#000000" font-family="sans-serif" font-size="13" lengthAdjust="spacingAndGlyphs" textLength="16" x="7" y="500.0684">ok</text><path d="M183.609,647.243 C172.091,656.043 159.515,666.433 149,677 C136.043,690.0214 123.363,706.0947 113.45,719.6532 " fill="none" style="stroke: #A80036; stroke-width: 1.0;"/><polygon fill="#A80036" points="110.465,723.7741,118.9845,718.8326,113.3985,719.7251,112.506,714.1391,110.465,723.7741" style="stroke: #A80036; stroke-width: 1.0;"/><text fill="#000000" font-family="sans-serif" font-size="13" lengthAdjust="spacingAndGlyphs" textLength="138" x="150" y="690.5684">game party is all dead</text><path d="M703.642,495.706 C567.476,496.031 185.939,505.257 112,597 C84.2444,631.439 85.1084,685.4737 89.0198,718.7056 " fill="none" style="stroke: #A80036; stroke-width: 1.0;"/><polygon fill="#A80036" points="89.6698,723.8544,92.5107,714.4242,89.0434,718.8938,84.5738,715.4264,89.6698,723.8544" style="stroke: #A80036; stroke-width: 1.0;"/><text fill="#000000" font-family="sans-serif" font-size="13" lengthAdjust="spacingAndGlyphs" textLength="34" x="113" y="627.0684">event</text></g></svg>