<?xml version="1.0" encoding="UTF-8" standalone="yes"?><svg xmlns="http://www.w3.org/2000/svg" xmlns:xlink="http://www.w3.org/1999/xlink" height="783px" style="width:2913px;height:783px;" version="1.1" viewBox="0 0 2913 783" width="2913px"><defs><filter height="300%" id="f1" width="300%" x="-1" y="-1"><feGaussianBlur result="blurOut" stdDeviation="2.0"/><feColorMatrix in="blurOut" result="blurOut2" type="matrix" values="0 0 0 0 0 0 0 0 0 0 0 0 0 0 0 0 0 0 .4 0"/><feOffset dx="4.0" dy="4.0" in="blurOut2" result="blurOut3"/><feBlend in="SourceGraphic" in2="blurOut3" mode="normal"/></filter></defs><g><ellipse cx="981" cy="18" fill="#000000" filter="url(#f1)" rx="10" ry="10" style="stroke: none; stroke-width: 1.0;"/><rect fill="#FEFECE" filter="url(#f1)" height="50" rx="12.5" ry="12.5" style="stroke: #A80036; stroke-width: 1.5;" width="98" x="932" y="89"/><line style="stroke: #A80036; stroke-width: 1.5;" x1="932" x2="1030" y1="115.4883" y2="115.4883"/><text fill="#000000" font-family="sans-serif" font-size="14" lengthAdjust="spacingAndGlyphs" textLength="78" x="942" y="107.5352">Scene_Boot</text><rect fill="#FEFECE" filter="url(#f1)" height="50" rx="12.5" ry="12.5" style="stroke: #A80036; stroke-width: 1.5;" width="97" x="1046.5" y="216"/><line style="stroke: #A80036; stroke-width: 1.5;" x1="1046.5" x2="1143.5" y1="242.4883" y2="242.4883"/><text fill="#000000" font-family="sans-serif" font-size="14" lengthAdjust="spacingAndGlyphs" textLength="77" x="1056.5" y="234.5352">Scene_Title</text><rect fill="#FEFECE" filter="url(#f1)" height="50" rx="12.5" ry="12.5" style="stroke: #A80036; stroke-width: 1.5;" width="96" x="2130" y="470"/><line style="stroke: #A80036; stroke-width: 1.5;" x1="2130" x2="2226" y1="496.4883" y2="496.4883"/><text fill="#000000" font-family="sans-serif" font-size="14" lengthAdjust="spacingAndGlyphs" textLength="76" x="2140" y="488.5352">Scene_Map</text><rect fill="#FEFECE" filter="url(#f1)" height="50" rx="12.5" ry="12.5" style="stroke: #A80036; stroke-width: 1.5;" width="100" x="1200" y="343"/><line style="stroke: #A80036; stroke-width: 1.5;" x1="1200" x2="1300" y1="369.4883" y2="369.4883"/><text fill="#000000" font-family="sans-serif" font-size="14" lengthAdjust="spacingAndGlyphs" textLength="80" x="1210" y="361.5352">Scene_Load</text><rect fill="#FEFECE" filter="url(#f1)" height="50" rx="12.5" ry="12.5" style="stroke: #A80036; stroke-width: 1.5;" width="121" x="94.5" y="724"/><line style="stroke: #A80036; stroke-width: 1.5;" x1="94.5" x2="215.5" y1="750.4883" y2="750.4883"/><text fill="#000000" font-family="sans-serif" font-size="14" lengthAdjust="spacingAndGlyphs" textLength="101" x="104.5" y="742.5352">Scene_Options</text><rect fill="#FEFECE" filter="url(#f1)" height="50" rx="12.5" ry="12.5" style="stroke: #A80036; stroke-width: 1.5;" width="105" x="1255.5" y="597"/><line style="stroke: #A80036; stroke-width: 1.5;" x1="1255.5" x2="1360.5" y1="623.4883" y2="623.4883"/><text fill="#000000" font-family="sans-serif" font-size="14" lengthAdjust="spacingAndGlyphs" textLength="85" x="1265.5" y="615.5352">Scene_Menu</text><rect fill="#FEFECE" filter="url(#f1)" height="50" rx="12.5" ry="12.5" style="stroke: #A80036; stroke-width: 1.5;" width="105" x="2145.5" y="597"/><line style="stroke: #A80036; stroke-width: 1.5;" x1="2145.5" x2="2250.5" y1="623.4883" y2="623.4883"/><text fill="#000000" font-family="sans-serif" font-size="14" lengthAdjust="spacingAndGlyphs" textLength="85" x="2155.5" y="615.5352">Scene_Battle</text><rect fill="#FEFECE" filter="url(#f1)" height="50" rx="12.5" ry="12.5" style="stroke: #A80036; stroke-width: 1.5;" width="112" x="2315" y="597"/><line style="stroke: #A80036; stroke-width: 1.5;" x1="2315" x2="2427" y1="623.4883" y2="623.4883"/><text fill="#000000" font-family="sans-serif" font-size="14" lengthAdjust="spacingAndGlyphs" textLength="92" x="2325" y="615.5352">Scene_Debug</text><rect fill="#FEFECE" filter="url(#f1)" height="50" rx="12.5" ry="12.5" style="stroke: #A80036; stroke-width: 1.5;" width="106" x="2474" y="597"/><line style="stroke: #A80036; stroke-width: 1.5;" x1="2474" x2="2580" y1="623.4883" y2="623.4883"/><text fill="#000000" font-family="sans-serif" font-size="14" lengthAdjust="spacingAndGlyphs" textLength="86" x="2484" y="615.5352">Scene_Name</text><rect fill="#FEFECE" filter="url(#f1)" height="50" rx="12.5" ry="12.5" style="stroke: #A80036; stroke-width: 1.5;" width="102" x="2793" y="597"/><line style="stroke: #A80036; stroke-width: 1.5;" x1="2793" x2="2895" y1="623.4883" y2="623.4883"/><text fill="#000000" font-family="sans-serif" font-size="14" lengthAdjust="spacingAndGlyphs" textLength="82" x="2803" y="615.5352">Scene_Shop</text><rect fill="#FEFECE" filter="url(#f1)" height="50" rx="12.5" ry="12.5" style="stroke: #A80036; stroke-width: 1.5;" width="97" x="473.5" y="724"/><line style="stroke: #A80036; stroke-width: 1.5;" x1="473.5" x2="570.5" y1="750.4883" y2="750.4883"/><text fill="#000000" font-family="sans-serif" font-size="14" lengthAdjust="spacingAndGlyphs" textLength="77" x="483.5" y="742.5352">Scene_Item</text><rect fill="#FEFECE" filter="url(#f1)" height="50" rx="12.5" ry="12.5" style="stroke: #A80036; stroke-width: 1.5;" width="98" x="730" y="724"/><line style="stroke: #A80036; stroke-width: 1.5;" x1="730" x2="828" y1="750.4883" y2="750.4883"/><text fill="#000000" font-family="sans-serif" font-size="14" lengthAdjust="spacingAndGlyphs" textLength="78" x="740" y="742.5352">Scene_Save</text><rect fill="#FEFECE" filter="url(#f1)" height="50" rx="12.5" ry="12.5" style="stroke: #A80036; stroke-width: 1.5;" width="132" x="1097" y="724"/><line style="stroke: #A80036; stroke-width: 1.5;" x1="1097" x2="1229" y1="750.4883" y2="750.4883"/><text fill="#000000" font-family="sans-serif" font-size="14" lengthAdjust="spacingAndGlyphs" textLength="112" x="1107" y="742.5352">Scene_GameEnd</text><rect fill="#FEFECE" filter="url(#f1)" height="50" rx="12.5" ry="12.5" style="stroke: #A80036; stroke-width: 1.5;" width="95" x="1388.5" y="724"/><line style="stroke: #A80036; stroke-width: 1.5;" x1="1388.5" x2="1483.5" y1="750.4883" y2="750.4883"/><text fill="#000000" font-family="sans-serif" font-size="14" lengthAdjust="spacingAndGlyphs" textLength="75" x="1398.5" y="742.5352">Scene_Skill</text><rect fill="#FEFECE" filter="url(#f1)" height="50" rx="12.5" ry="12.5" style="stroke: #A80036; stroke-width: 1.5;" width="106" x="1643" y="724"/><line style="stroke: #A80036; stroke-width: 1.5;" x1="1643" x2="1749" y1="750.4883" y2="750.4883"/><text fill="#000000" font-family="sans-serif" font-size="14" lengthAdjust="spacingAndGlyphs" textLength="86" x="1653" y="742.5352">Scene_Equip</text><rect fill="#FEFECE" filter="url(#f1)" height="50" rx="12.5" ry="12.5" style="stroke: #A80036; stroke-width: 1.5;" width="109" x="1897.5" y="724"/><line style="stroke: #A80036; stroke-width: 1.5;" x1="1897.5" x2="2006.5" y1="750.4883" y2="750.4883"/><text fill="#000000" font-family="sans-serif" font-size="14" lengthAdjust="spacingAndGlyphs" textLength="89" x="1907.5" y="742.5352">Scene_Status</text><rect fill="#FEFECE" filter="url(#f1)" height="50" rx="12.5" ry="12.5" style="stroke: #A80036; stroke-width: 1.5;" width="136" x="1142" y="89"/><line style="stroke: #A80036; stroke-width: 1.5;" x1="1142" x2="1278" y1="115.4883" y2="115.4883"/><text fill="#000000" font-family="sans-serif" font-size="14" lengthAdjust="spacingAndGlyphs" textLength="116" x="1152" y="107.5352">Scene_Gameover</text><rect fill="#FEFECE" filter="url(#f1)" height="50" rx="12.5" ry="12.5" style="stroke: #A80036; stroke-width: 1.5;" width="129" x="2104.5" y="724"/><line style="stroke: #A80036; stroke-width: 1.5;" x1="2104.5" x2="2233.5" y1="750.4883" y2="750.4883"/><text fill="#000000" font-family="sans-serif" font-size="14" lengthAdjust="spacingAndGlyphs" textLength="109" x="2114.5" y="742.5352">SceneGameover</text><path d="M981,28.013 C981,40.698 981,64.409 981,83.57 " fill="none" style="stroke: #A80036; stroke-width: 1.0;"/><polygon fill="#A80036" points="981,88.84,985,79.84,981,83.84,977,79.84,981,88.84" style="stroke: #A80036; stroke-width: 1.0;"/><path d="M973.392,139.181 C970.295,153.834 969.223,172.282 978,186 C992.071,207.991 1017.63,221.154 1041.27,228.968 " fill="none" style="stroke: #A80036; stroke-width: 1.0;"/><polygon fill="#A80036" points="1046.28,230.555,1038.9133,224.018,1041.5146,229.0413,1036.4914,231.6426,1046.28,230.555" style="stroke: #A80036; stroke-width: 1.0;"/><text fill="#000000" font-family="sans-serif" font-size="13" lengthAdjust="spacingAndGlyphs" textLength="187" x="979" y="182.5684">on complete resource loading</text><path d="M1090.41,266.176 C1085.56,299.851 1082.74,360.404 1117,393 C1190.66,463.08 1919.89,487.273 2124.73,492.716 " fill="none" style="stroke: #A80036; stroke-width: 1.0;"/><polygon fill="#A80036" points="2129.76,492.848,2120.8658,488.6179,2124.7617,492.7194,2120.6601,496.6153,2129.76,492.848" style="stroke: #A80036; stroke-width: 1.0;"/><text fill="#000000" font-family="sans-serif" font-size="13" lengthAdjust="spacingAndGlyphs" textLength="63" x="1118" y="373.0684">new game</text><path d="M1109.94,266.131 C1119.96,280.946 1134.18,299.586 1150,313 C1163.43,324.392 1179.66,334.406 1195.09,342.616 " fill="none" style="stroke: #A80036; stroke-width: 1.0;"/><polygon fill="#A80036" points="1199.85,345.106,1193.7241,337.3941,1195.418,342.7914,1190.0207,344.4853,1199.85,345.106" style="stroke: #A80036; stroke-width: 1.0;"/><text fill="#000000" font-family="sans-serif" font-size="13" lengthAdjust="spacingAndGlyphs" textLength="55" x="1151" y="309.5684">continue</text><path d="M1241.25,342.766 C1234.8,327.724 1224.76,308.874 1211,296 C1193.35,279.493 1169.76,267.264 1148.46,258.659 " fill="none" style="stroke: #A80036; stroke-width: 1.0;"/><polygon fill="#A80036" points="1143.67,256.768,1150.5818,263.7842,1148.3231,258.5978,1153.5095,256.3391,1143.67,256.768" style="stroke: #A80036; stroke-width: 1.0;"/><text fill="#000000" font-family="sans-serif" font-size="13" lengthAdjust="spacingAndGlyphs" textLength="79" x="1227" y="309.5684">cancel (prev)</text><path d="M1046.49,242.972 C859.204,246.948 189.311,263.343 100,296 C50.8284,313.98 6,314.644 6,367 C6,367 6,367 6,623 C6,669.723 49.5333,702.4571 89.538,722.674 " fill="none" style="stroke: #A80036; stroke-width: 1.0;"/><polygon fill="#A80036" points="94.396,725.0775,88.1034,717.501,89.9146,722.8601,84.5555,724.6713,94.396,725.0775" style="stroke: #A80036; stroke-width: 1.0;"/><text fill="#000000" font-family="sans-serif" font-size="13" lengthAdjust="spacingAndGlyphs" textLength="48" x="7" y="500.0684">options</text><path d="M145.983,723.9523 C137.47,699.0606 126,658.867 126,623 C126,367 126,367 126,367 C126,273.956 837.82,248.581 1041.28,243.228 " fill="none" style="stroke: #A80036; stroke-width: 1.0;"/><polygon fill="#A80036" points="1046.28,243.098,1037.1801,239.3307,1041.2817,243.2266,1037.3858,247.3281,1046.28,243.098" style="stroke: #A80036; stroke-width: 1.0;"/><text fill="#000000" font-family="sans-serif" font-size="13" lengthAdjust="spacingAndGlyphs" textLength="79" x="127" y="500.0684">cancel (prev)</text><path d="M1300.22,375.765 C1460.65,397.374 1959.85,464.616 2124.63,486.811 " fill="none" style="stroke: #A80036; stroke-width: 1.0;"/><polygon fill="#A80036" points="2129.88,487.518,2121.4841,482.3693,2124.9234,486.8606,2120.4322,490.2999,2129.88,487.518" style="stroke: #A80036; stroke-width: 1.0;"/><text fill="#000000" font-family="sans-serif" font-size="13" lengthAdjust="spacingAndGlyphs" textLength="101" x="1771" y="436.5684">on load success</text><path d="M2129.99,497.989 C1995.12,503.86 1614.73,522.451 1493,550 C1448.2,560.138 1399.82,579.012 1363.77,594.752 " fill="none" style="stroke: #A80036; stroke-width: 1.0;"/><polygon fill="#A80036" points="1358.99,596.853,1368.8388,596.889,1363.5664,594.839,1365.6164,589.5667,1358.99,596.853" style="stroke: #A80036; stroke-width: 1.0;"/><text fill="#000000" font-family="sans-serif" font-size="13" lengthAdjust="spacingAndGlyphs" textLength="118" x="1494" y="563.5684">trigger menu input</text><path d="M1360.77,613.418 C1515.95,591.122 1969.59,525.943 2125.03,503.611 " fill="none" style="stroke: #A80036; stroke-width: 1.0;"/><polygon fill="#A80036" points="2129.99,502.899,2120.5109,500.2258,2125.0413,503.6133,2121.6538,508.1437,2129.99,502.899" style="stroke: #A80036; stroke-width: 1.0;"/><text fill="#000000" font-family="sans-serif" font-size="13" lengthAdjust="spacingAndGlyphs" textLength="145" x="1797" y="563.5684">cancel command (prev)</text><path d="M2145.53,520.169 C2131.93,533.402 2120.93,550.439 2129,567 C2133.92,577.107 2141.76,585.878 2150.41,593.244 " fill="none" style="stroke: #A80036; stroke-width: 1.0;"/><polygon fill="#A80036" points="2154.71,596.746,2150.2553,587.9622,2150.8323,593.5895,2145.2049,594.1666,2154.71,596.746" style="stroke: #A80036; stroke-width: 1.0;"/><text fill="#000000" font-family="sans-serif" font-size="13" lengthAdjust="spacingAndGlyphs" textLength="51" x="2130" y="563.5684">encount</text><path d="M2188.01,520.322 C2195.4,535.592 2206.8,554.662 2222,567 C2247.24,587.49 2280.93,600.57 2309.88,608.714 " fill="none" style="stroke: #A80036; stroke-width: 1.0;"/><polygon fill="#A80036" points="2314.86,610.079,2307.2455,603.8324,2310.0396,608.7511,2305.1209,611.5451,2314.86,610.079" style="stroke: #A80036; stroke-width: 1.0;"/><text fill="#000000" font-family="sans-serif" font-size="13" lengthAdjust="spacingAndGlyphs" textLength="122" x="2223" y="563.5684">trigger debug input</text><path d="M2369.52,596.701 C2367.34,581.44 2362.17,562.372 2350,550 C2318.81,518.287 2269.24,505.143 2231.31,499.724 " fill="none" style="stroke: #A80036; stroke-width: 1.0;"/><polygon fill="#A80036" points="2226.28,499.04,2234.6466,504.2361,2231.2328,499.7255,2235.7434,496.3117,2226.28,499.04" style="stroke: #A80036; stroke-width: 1.0;"/><text fill="#000000" font-family="sans-serif" font-size="13" lengthAdjust="spacingAndGlyphs" textLength="79" x="2362" y="563.5684">cancel (prev)</text><path d="M2226.01,497.709 C2282.45,501.435 2377.58,513.175 2450,550 C2470.62,560.485 2489.76,578.083 2503.8,593.135 " fill="none" style="stroke: #A80036; stroke-width: 1.0;"/><polygon fill="#A80036" points="2507.26,596.901,2504.1232,587.565,2503.8798,593.2167,2498.2282,592.9733,2507.26,596.901" style="stroke: #A80036; stroke-width: 1.0;"/><text fill="#000000" font-family="sans-serif" font-size="13" lengthAdjust="spacingAndGlyphs" textLength="72" x="2474" y="563.5684">game event</text><path d="M2548.17,596.801 C2558.54,581.959 2566.54,563.315 2555,550 C2513.77,502.44 2325.32,495.755 2231.46,495.451 " fill="none" style="stroke: #A80036; stroke-width: 1.0;"/><polygon fill="#A80036" points="2226.23,495.441,2235.2185,499.4667,2231.23,495.4553,2235.2414,491.4667,2226.23,495.441" style="stroke: #A80036; stroke-width: 1.0;"/><text fill="#000000" font-family="sans-serif" font-size="13" lengthAdjust="spacingAndGlyphs" textLength="121" x="2561" y="563.5684">on complete  (prev)</text><path d="M2226,495.838 C2317.96,496.662 2524.62,504.011 2691,550 C2728.24,560.294 2767.74,578.837 2797.27,594.391 " fill="none" style="stroke: #A80036; stroke-width: 1.0;"/><polygon fill="#A80036" points="2801.92,596.86,2795.864,589.0931,2797.5091,594.5054,2792.0967,596.1505,2801.92,596.86" style="stroke: #A80036; stroke-width: 1.0;"/><text fill="#000000" font-family="sans-serif" font-size="13" lengthAdjust="spacingAndGlyphs" textLength="72" x="2739" y="563.5684">game event</text><path d="M2842.41,596.708 C2840.01,580.838 2834.14,561.071 2820,550 C2774.09,514.048 2377,500.837 2231.31,497.173 " fill="none" style="stroke: #A80036; stroke-width: 1.0;"/><polygon fill="#A80036" points="2226.23,497.047,2235.1362,501.2517,2231.2287,497.1613,2235.3191,493.2538,2226.23,497.047" style="stroke: #A80036; stroke-width: 1.0;"/><text fill="#000000" font-family="sans-serif" font-size="13" lengthAdjust="spacingAndGlyphs" textLength="79" x="2833" y="563.5684">cancel (prev)</text><path d="M1255.38,624.351 C1073.15,629.281 478.632,647.572 451,677 C437.078,691.8272 450.594,707.8872 469.43,720.9764 " fill="none" style="stroke: #A80036; stroke-width: 1.0;"/><polygon fill="#A80036" points="473.786,723.8934,468.5348,715.5612,469.6319,721.1107,464.0825,722.2078,473.786,723.8934" style="stroke: #A80036; stroke-width: 1.0;"/><text fill="#000000" font-family="sans-serif" font-size="13" lengthAdjust="spacingAndGlyphs" textLength="94" x="452" y="690.5684">item command</text><path d="M545.313,723.7279 C562.596,707.43 587.64,687.1472 614,677 C729.641,632.485 1105.34,624.637 1250.25,623.276 " fill="none" style="stroke: #A80036; stroke-width: 1.0;"/><polygon fill="#A80036" points="1255.31,623.23,1246.2649,619.3331,1250.3103,623.2871,1246.3563,627.3326,1255.31,623.23" style="stroke: #A80036; stroke-width: 1.0;"/><text fill="#000000" font-family="sans-serif" font-size="13" lengthAdjust="spacingAndGlyphs" textLength="79" x="615" y="690.5684">cancel (prev)</text><path d="M1255.23,623.914 C1038.32,627.878 224.751,644.844 181,677 C167.791,686.7085 161.282,703.841 158.08,718.8438 " fill="none" style="stroke: #A80036; stroke-width: 1.0;"/><polygon fill="#A80036" points="157.115,723.8363,162.7489,715.758,158.063,718.927,154.894,714.2411,157.115,723.8363" style="stroke: #A80036; stroke-width: 1.0;"/><text fill="#000000" font-family="sans-serif" font-size="13" lengthAdjust="spacingAndGlyphs" textLength="107" x="182" y="690.5684">option command</text><path d="M215.668,724.5585 C264.578,706.0594 329.571,682.4848 357,677 C529.419,642.523 1071.6,628.063 1250.27,624.155 " fill="none" style="stroke: #A80036; stroke-width: 1.0;"/><polygon fill="#A80036" points="1255.44,624.042,1246.3618,620.2228,1250.441,624.142,1246.5218,628.2212,1255.44,624.042" style="stroke: #A80036; stroke-width: 1.0;"/><text fill="#000000" font-family="sans-serif" font-size="13" lengthAdjust="spacingAndGlyphs" textLength="79" x="358" y="690.5684">cancel (prev)</text><path d="M1255.49,623.768 C1116.06,626.349 744.604,636.953 708,677 C694.332,691.9528 707.705,707.961 726.384,720.985 " fill="none" style="stroke: #A80036; stroke-width: 1.0;"/><polygon fill="#A80036" points="730.703,723.8871,725.4633,715.5477,726.5528,721.0987,721.0018,722.1881,730.703,723.8871" style="stroke: #A80036; stroke-width: 1.0;"/><text fill="#000000" font-family="sans-serif" font-size="13" lengthAdjust="spacingAndGlyphs" textLength="94" x="709" y="690.5684">save command</text><path d="M802.832,723.7478 C820.169,707.6802 845.063,687.6648 871,677 C938.355,649.305 1147.52,632.922 1250.1,626.355 " fill="none" style="stroke: #A80036; stroke-width: 1.0;"/><polygon fill="#A80036" points="1255.2,626.03,1245.9664,622.6036,1250.2099,626.3443,1246.4692,630.5878,1255.2,626.03" style="stroke: #A80036; stroke-width: 1.0;"/><text fill="#000000" font-family="sans-serif" font-size="13" lengthAdjust="spacingAndGlyphs" textLength="190" x="872" y="690.5684">on save success |cancel (prev)</text><path d="M1255.26,627.778 C1193.83,634.561 1097.95,649.349 1076,677 C1062.7,693.7488 1076.78,709.1805 1097.2,721.3485 " fill="none" style="stroke: #A80036; stroke-width: 1.0;"/><polygon fill="#A80036" points="1101.65,723.8948,1095.8288,715.9504,1097.3114,721.4095,1091.8523,722.8921,1101.65,723.8948" style="stroke: #A80036; stroke-width: 1.0;"/><text fill="#000000" font-family="sans-serif" font-size="13" lengthAdjust="spacingAndGlyphs" textLength="127" x="1077" y="690.5684">game end command</text><path d="M1190.87,723.9727 C1215.22,702.9843 1250.55,672.522 1276.04,650.552 " fill="none" style="stroke: #A80036; stroke-width: 1.0;"/><polygon fill="#A80036" points="1280.04,647.101,1270.615,649.9591,1276.2568,650.3702,1275.8457,656.0121,1280.04,647.101" style="stroke: #A80036; stroke-width: 1.0;"/><text fill="#000000" font-family="sans-serif" font-size="13" lengthAdjust="spacingAndGlyphs" textLength="79" x="1246" y="690.5684">cancel (prev)</text><path d="M1325.54,647.184 C1336.44,661.491 1351.17,679.5744 1366,694 C1375.62,703.3523 1386.83,712.6127 1397.42,720.754 " fill="none" style="stroke: #A80036; stroke-width: 1.0;"/><polygon fill="#A80036" points="1401.6,723.9346,1396.8607,715.301,1397.6212,720.9065,1392.0157,721.6671,1401.6,723.9346" style="stroke: #A80036; stroke-width: 1.0;"/><text fill="#000000" font-family="sans-serif" font-size="13" lengthAdjust="spacingAndGlyphs" textLength="93" x="1367" y="690.5684">skill command</text><path d="M1457.24,723.9034 C1467.3,709.4576 1475.13,691.1986 1465,677 C1442.58,645.579 1400.65,632.255 1365.77,626.692 " fill="none" style="stroke: #A80036; stroke-width: 1.0;"/><polygon fill="#A80036" points="1360.67,625.926,1368.9758,631.2188,1365.6145,626.6689,1370.1644,623.3076,1360.67,625.926" style="stroke: #A80036; stroke-width: 1.0;"/><text fill="#000000" font-family="sans-serif" font-size="13" lengthAdjust="spacingAndGlyphs" textLength="79" x="1471" y="690.5684">cancel (prev)</text><path d="M1360.56,630.134 C1412.14,638.099 1492.51,653.105 1559,677 C1591.41,688.6485 1625.82,706.5037 1652.05,721.3938 " fill="none" style="stroke: #A80036; stroke-width: 1.0;"/><polygon fill="#A80036" points="1656.51,723.9465,1650.6872,716.0032,1652.1709,721.4621,1646.7121,722.9458,1656.51,723.9465" style="stroke: #A80036; stroke-width: 1.0;"/><text fill="#000000" font-family="sans-serif" font-size="13" lengthAdjust="spacingAndGlyphs" textLength="101" x="1600" y="690.5684">equip command</text><path d="M1709.91,723.9656 C1716.66,708.813 1721.17,689.7667 1710,677 C1687.69,651.492 1471.63,633.812 1365.81,626.611 " fill="none" style="stroke: #A80036; stroke-width: 1.0;"/><polygon fill="#A80036" points="1360.55,626.255,1369.2546,630.8627,1365.5382,626.5978,1369.8031,622.8815,1360.55,626.255" style="stroke: #A80036; stroke-width: 1.0;"/><text fill="#000000" font-family="sans-serif" font-size="13" lengthAdjust="spacingAndGlyphs" textLength="79" x="1718" y="690.5684">cancel (prev)</text><path d="M1360.75,622.824 C1452.92,623.806 1648.47,631.647 1806,677 C1841.74,687.2886 1879.42,705.8318 1907.55,721.3878 " fill="none" style="stroke: #A80036; stroke-width: 1.0;"/><polygon fill="#A80036" points="1911.98,723.857,1906.0581,715.9874,1907.6101,721.4271,1902.1703,722.9792,1911.98,723.857" style="stroke: #A80036; stroke-width: 1.0;"/><text fill="#000000" font-family="sans-serif" font-size="13" lengthAdjust="spacingAndGlyphs" textLength="105" x="1853" y="690.5684">status command</text><path d="M1966.61,723.7921 C1973.72,708.5684 1978.52,689.5079 1967,677 C1926.69,633.251 1519.57,624.946 1366.11,623.369 " fill="none" style="stroke: #A80036; stroke-width: 1.0;"/><polygon fill="#A80036" points="1360.76,623.316,1369.7137,627.4186,1365.7597,623.3731,1369.8051,619.4191,1360.76,623.316" style="stroke: #A80036; stroke-width: 1.0;"/><text fill="#000000" font-family="sans-serif" font-size="13" lengthAdjust="spacingAndGlyphs" textLength="79" x="1975" y="690.5684">cancel (prev)</text><path d="M1200.1,139.08 C1193.33,153.694 1183.35,172.138 1171,186 C1162.16,195.923 1151.17,205.036 1140.33,212.837 " fill="none" style="stroke: #A80036; stroke-width: 1.0;"/><polygon fill="#A80036" points="1136.02,215.873,1145.6789,213.9481,1140.104,212.9885,1141.0637,207.4136,1136.02,215.873" style="stroke: #A80036; stroke-width: 1.0;"/><text fill="#000000" font-family="sans-serif" font-size="13" lengthAdjust="spacingAndGlyphs" textLength="16" x="1185" y="182.5684">ok</text><path d="M2192.41,647.101 C2187.65,667.593 2180.81,697.0764 2175.75,718.8844 " fill="none" style="stroke: #A80036; stroke-width: 1.0;"/><polygon fill="#A80036" points="2174.57,723.9727,2180.5002,716.1093,2175.6998,719.102,2172.7071,714.3016,2174.57,723.9727" style="stroke: #A80036; stroke-width: 1.0;"/><text fill="#000000" font-family="sans-serif" font-size="13" lengthAdjust="spacingAndGlyphs" textLength="138" x="2186" y="690.5684">game party is all dead</text><path d="M2145.99,520.19 C2125.02,538.502 2100.06,565.781 2092,597 C2086.45,618.517 2084.89,625.946 2092,647 C2101.46,675.0059 2122.13,701.3779 2139.67,720.147 " fill="none" style="stroke: #A80036; stroke-width: 1.0;"/><polygon fill="#A80036" points="2143.13,723.7976,2139.8393,714.5147,2139.6894,720.1696,2134.0345,720.0197,2143.13,723.7976" style="stroke: #A80036; stroke-width: 1.0;"/><text fill="#000000" font-family="sans-serif" font-size="13" lengthAdjust="spacingAndGlyphs" textLength="34" x="2093" y="627.0684">event</text></g></svg>