<?xml version="1.0" encoding="UTF-8" standalone="yes"?><svg xmlns="http://www.w3.org/2000/svg" xmlns:xlink="http://www.w3.org/1999/xlink" height="783px" style="width:2489px;height:783px;" version="1.1" viewBox="0 0 2489 783" width="2489px"><defs><filter height="300%" id="f1" width="300%" x="-1" y="-1"><feGaussianBlur result="blurOut" stdDeviation="2.0"/><feColorMatrix in="blurOut" result="blurOut2" type="matrix" values="0 0 0 0 0 0 0 0 0 0 0 0 0 0 0 0 0 0 .4 0"/><feOffset dx="4.0" dy="4.0" in="blurOut2" result="blurOut3"/><feBlend in="SourceGraphic" in2="blurOut3" mode="normal"/></filter></defs><g><ellipse cx="954" cy="18" fill="#000000" filter="url(#f1)" rx="10" ry="10" style="stroke: none; stroke-width: 1.0;"/><rect fill="#FEFECE" filter="url(#f1)" height="50" rx="12.5" ry="12.5" style="stroke: #A80036; stroke-width: 1.5;" width="98" x="905" y="89"/><line style="stroke: #A80036; stroke-width: 1.5;" x1="905" x2="1003" y1="115.4883" y2="115.4883"/><text fill="#000000" font-family="sans-serif" font-size="14" lengthAdjust="spacingAndGlyphs" textLength="78" x="915" y="107.5352">Scene_Boot</text><rect fill="#FEFECE" filter="url(#f1)" height="50" rx="12.5" ry="12.5" style="stroke: #A80036; stroke-width: 1.5;" width="97" x="905.5" y="216"/><line style="stroke: #A80036; stroke-width: 1.5;" x1="905.5" x2="1002.5" y1="242.4883" y2="242.4883"/><text fill="#000000" font-family="sans-serif" font-size="14" lengthAdjust="spacingAndGlyphs" textLength="77" x="915.5" y="234.5352">Scene_Title</text><rect fill="#FEFECE" filter="url(#f1)" height="50" rx="12.5" ry="12.5" style="stroke: #A80036; stroke-width: 1.5;" width="96" x="742" y="470"/><line style="stroke: #A80036; stroke-width: 1.5;" x1="742" x2="838" y1="496.4883" y2="496.4883"/><text fill="#000000" font-family="sans-serif" font-size="14" lengthAdjust="spacingAndGlyphs" textLength="76" x="752" y="488.5352">Scene_Map</text><rect fill="#FEFECE" filter="url(#f1)" height="50" rx="12.5" ry="12.5" style="stroke: #A80036; stroke-width: 1.5;" width="100" x="890" y="343"/><line style="stroke: #A80036; stroke-width: 1.5;" x1="890" x2="990" y1="369.4883" y2="369.4883"/><text fill="#000000" font-family="sans-serif" font-size="14" lengthAdjust="spacingAndGlyphs" textLength="80" x="900" y="361.5352">Scene_Load</text><rect fill="#FEFECE" filter="url(#f1)" height="50" rx="12.5" ry="12.5" style="stroke: #A80036; stroke-width: 1.5;" width="121" x="2161.5" y="724"/><line style="stroke: #A80036; stroke-width: 1.5;" x1="2161.5" x2="2282.5" y1="750.4883" y2="750.4883"/><text fill="#000000" font-family="sans-serif" font-size="14" lengthAdjust="spacingAndGlyphs" textLength="101" x="2171.5" y="742.5352">Scene_Options</text><rect fill="#FEFECE" filter="url(#f1)" height="50" rx="12.5" ry="12.5" style="stroke: #A80036; stroke-width: 1.5;" width="105" x="1229.5" y="597"/><line style="stroke: #A80036; stroke-width: 1.5;" x1="1229.5" x2="1334.5" y1="623.4883" y2="623.4883"/><text fill="#000000" font-family="sans-serif" font-size="14" lengthAdjust="spacingAndGlyphs" textLength="85" x="1239.5" y="615.5352">Scene_Menu</text><rect fill="#FEFECE" filter="url(#f1)" height="50" rx="12.5" ry="12.5" style="stroke: #A80036; stroke-width: 1.5;" width="105" x="203.5" y="597"/><line style="stroke: #A80036; stroke-width: 1.5;" x1="203.5" x2="308.5" y1="623.4883" y2="623.4883"/><text fill="#000000" font-family="sans-serif" font-size="14" lengthAdjust="spacingAndGlyphs" textLength="85" x="213.5" y="615.5352">Scene_Battle</text><rect fill="#FEFECE" filter="url(#f1)" height="50" rx="12.5" ry="12.5" style="stroke: #A80036; stroke-width: 1.5;" width="112" x="688" y="597"/><line style="stroke: #A80036; stroke-width: 1.5;" x1="688" x2="800" y1="623.4883" y2="623.4883"/><text fill="#000000" font-family="sans-serif" font-size="14" lengthAdjust="spacingAndGlyphs" textLength="92" x="698" y="615.5352">Scene_Debug</text><rect fill="#FEFECE" filter="url(#f1)" height="50" rx="12.5" ry="12.5" style="stroke: #A80036; stroke-width: 1.5;" width="106" x="401" y="597"/><line style="stroke: #A80036; stroke-width: 1.5;" x1="401" x2="507" y1="623.4883" y2="623.4883"/><text fill="#000000" font-family="sans-serif" font-size="14" lengthAdjust="spacingAndGlyphs" textLength="86" x="411" y="615.5352">Scene_Name</text><rect fill="#FEFECE" filter="url(#f1)" height="50" rx="12.5" ry="12.5" style="stroke: #A80036; stroke-width: 1.5;" width="102" x="906" y="597"/><line style="stroke: #A80036; stroke-width: 1.5;" x1="906" x2="1008" y1="623.4883" y2="623.4883"/><text fill="#000000" font-family="sans-serif" font-size="14" lengthAdjust="spacingAndGlyphs" textLength="82" x="916" y="615.5352">Scene_Shop</text><rect fill="#FEFECE" filter="url(#f1)" height="50" rx="12.5" ry="12.5" style="stroke: #A80036; stroke-width: 1.5;" width="97" x="1499.5" y="724"/><line style="stroke: #A80036; stroke-width: 1.5;" x1="1499.5" x2="1596.5" y1="750.4883" y2="750.4883"/><text fill="#000000" font-family="sans-serif" font-size="14" lengthAdjust="spacingAndGlyphs" textLength="77" x="1509.5" y="742.5352">Scene_Item</text><rect fill="#FEFECE" filter="url(#f1)" height="50" rx="12.5" ry="12.5" style="stroke: #A80036; stroke-width: 1.5;" width="98" x="615" y="724"/><line style="stroke: #A80036; stroke-width: 1.5;" x1="615" x2="713" y1="750.4883" y2="750.4883"/><text fill="#000000" font-family="sans-serif" font-size="14" lengthAdjust="spacingAndGlyphs" textLength="78" x="625" y="742.5352">Scene_Save</text><rect fill="#FEFECE" filter="url(#f1)" height="50" rx="12.5" ry="12.5" style="stroke: #A80036; stroke-width: 1.5;" width="132" x="1739" y="724"/><line style="stroke: #A80036; stroke-width: 1.5;" x1="1739" x2="1871" y1="750.4883" y2="750.4883"/><text fill="#000000" font-family="sans-serif" font-size="14" lengthAdjust="spacingAndGlyphs" textLength="112" x="1749" y="742.5352">Scene_GameEnd</text><rect fill="#FEFECE" filter="url(#f1)" height="50" rx="12.5" ry="12.5" style="stroke: #A80036; stroke-width: 1.5;" width="95" x="1251.5" y="724"/><line style="stroke: #A80036; stroke-width: 1.5;" x1="1251.5" x2="1346.5" y1="750.4883" y2="750.4883"/><text fill="#000000" font-family="sans-serif" font-size="14" lengthAdjust="spacingAndGlyphs" textLength="75" x="1261.5" y="742.5352">Scene_Skill</text><rect fill="#FEFECE" filter="url(#f1)" height="50" rx="12.5" ry="12.5" style="stroke: #A80036; stroke-width: 1.5;" width="106" x="339" y="724"/><line style="stroke: #A80036; stroke-width: 1.5;" x1="339" x2="445" y1="750.4883" y2="750.4883"/><text fill="#000000" font-family="sans-serif" font-size="14" lengthAdjust="spacingAndGlyphs" textLength="86" x="349" y="742.5352">Scene_Equip</text><rect fill="#FEFECE" filter="url(#f1)" height="50" rx="12.5" ry="12.5" style="stroke: #A80036; stroke-width: 1.5;" width="109" x="969.5" y="724"/><line style="stroke: #A80036; stroke-width: 1.5;" x1="969.5" x2="1078.5" y1="750.4883" y2="750.4883"/><text fill="#000000" font-family="sans-serif" font-size="14" lengthAdjust="spacingAndGlyphs" textLength="89" x="979.5" y="742.5352">Scene_Status</text><rect fill="#FEFECE" filter="url(#f1)" height="50" rx="12.5" ry="12.5" style="stroke: #A80036; stroke-width: 1.5;" width="136" x="26" y="724"/><line style="stroke: #A80036; stroke-width: 1.5;" x1="26" x2="162" y1="750.4883" y2="750.4883"/><text fill="#000000" font-family="sans-serif" font-size="14" lengthAdjust="spacingAndGlyphs" textLength="116" x="36" y="742.5352">Scene_Gameover</text><path d="M954,28.013 C954,40.698 954,64.409 954,83.57 " fill="none" style="stroke: #A80036; stroke-width: 1.0;"/><polygon fill="#A80036" points="954,88.84,958,79.84,954,83.84,950,79.84,954,88.84" style="stroke: #A80036; stroke-width: 1.0;"/><path d="M954,139.101 C954,159.593 954,189.076 954,210.884 " fill="none" style="stroke: #A80036; stroke-width: 1.0;"/><polygon fill="#A80036" points="954,215.973,958,206.973,954,210.973,950,206.973,954,215.973" style="stroke: #A80036; stroke-width: 1.0;"/><text fill="#000000" font-family="sans-serif" font-size="13" lengthAdjust="spacingAndGlyphs" textLength="187" x="955" y="182.5684">on complete resource loading</text><path d="M905.258,262.169 C871.776,278.726 829.464,305.563 807,343 C784.517,380.469 784.011,432.666 786.455,464.846 " fill="none" style="stroke: #A80036; stroke-width: 1.0;"/><polygon fill="#A80036" points="786.87,469.834,790.1105,460.5335,786.4557,464.8512,782.138,461.1964,786.87,469.834" style="stroke: #A80036; stroke-width: 1.0;"/><text fill="#000000" font-family="sans-serif" font-size="13" lengthAdjust="spacingAndGlyphs" textLength="63" x="808" y="373.0684">new game</text><path d="M968.903,266.293 C975.456,279.995 980.712,297.438 976,313 C973.3,321.917 968.589,330.707 963.447,338.522 " fill="none" style="stroke: #A80036; stroke-width: 1.0;"/><polygon fill="#A80036" points="960.556,342.759,968.9332,337.58,963.3745,338.6291,962.3254,333.0704,960.556,342.759" style="stroke: #A80036; stroke-width: 1.0;"/><text fill="#000000" font-family="sans-serif" font-size="13" lengthAdjust="spacingAndGlyphs" textLength="55" x="979" y="309.5684">continue</text><path d="M904.981,342.92 C890.559,329.847 878.901,312.929 887,296 C891.82,285.924 899.54,277.127 908.054,269.723 " fill="none" style="stroke: #A80036; stroke-width: 1.0;"/><polygon fill="#A80036" points="912.288,266.2,902.8112,268.8815,908.4444,269.398,907.928,275.0312,912.288,266.2" style="stroke: #A80036; stroke-width: 1.0;"/><text fill="#000000" font-family="sans-serif" font-size="13" lengthAdjust="spacingAndGlyphs" textLength="79" x="888" y="309.5684">cancel (prev)</text><path d="M1002.615,242.569 C1230.36,245.417 2186.05,259.467 2314,296 C2375.44,313.541 2439,303.108 2439,367 C2439,367 2439,367 2439,623 C2439,693.6572 2351.55,724.9799 2287.68,738.434 " fill="none" style="stroke: #A80036; stroke-width: 1.0;"/><polygon fill="#A80036" points="2282.74,739.4496,2292.3642,741.5413,2287.6361,738.4356,2290.7418,733.7075,2282.74,739.4496" style="stroke: #A80036; stroke-width: 1.0;"/><text fill="#000000" font-family="sans-serif" font-size="13" lengthAdjust="spacingAndGlyphs" textLength="48" x="2440" y="500.0684">options</text><path d="M2244.97,723.8871 C2252.48,715.018 2260.34,704.5516 2266,694 C2281.61,664.884 2288,656.036 2288,623 C2288,367 2288,367 2288,367 C2288,301.556 1256.82,254.564 1007.69,244.166 " fill="none" style="stroke: #A80036; stroke-width: 1.0;"/><polygon fill="#A80036" points="1002.662,243.957,1011.4823,248.339,1007.6574,244.1713,1011.8251,240.3464,1002.662,243.957" style="stroke: #A80036; stroke-width: 1.0;"/><text fill="#000000" font-family="sans-serif" font-size="13" lengthAdjust="spacingAndGlyphs" textLength="79" x="2289" y="500.0684">cancel (prev)</text><path d="M911.078,393.101 C885.866,414.112 849.31,444.575 822.969,466.526 " fill="none" style="stroke: #A80036; stroke-width: 1.0;"/><polygon fill="#A80036" points="818.833,469.973,828.3082,467.286,822.6747,466.7728,823.1879,461.1393,818.833,469.973" style="stroke: #A80036; stroke-width: 1.0;"/><text fill="#000000" font-family="sans-serif" font-size="13" lengthAdjust="spacingAndGlyphs" textLength="101" x="875" y="436.5684">on load success</text><path d="M838.01,497.565 C958.055,501.971 1263.82,516.413 1294,550 C1304.13,561.278 1301.97,577.807 1296.89,592.08 " fill="none" style="stroke: #A80036; stroke-width: 1.0;"/><polygon fill="#A80036" points="1295.07,596.822,1302.0363,589.86,1296.8663,592.1558,1294.5705,586.9858,1295.07,596.822" style="stroke: #A80036; stroke-width: 1.0;"/><text fill="#000000" font-family="sans-serif" font-size="13" lengthAdjust="spacingAndGlyphs" textLength="118" x="1302" y="563.5684">trigger menu input</text><path d="M1229.11,599.893 C1188.77,584.409 1131.54,563.767 1080,550 C998.593,528.252 902.035,512.154 843.43,503.426 " fill="none" style="stroke: #A80036; stroke-width: 1.0;"/><polygon fill="#A80036" points="838.229,502.656,846.547,507.9297,843.1752,503.3875,847.7174,500.0157,838.229,502.656" style="stroke: #A80036; stroke-width: 1.0;"/><text fill="#000000" font-family="sans-serif" font-size="13" lengthAdjust="spacingAndGlyphs" textLength="145" x="1138" y="563.5684">cancel command (prev)</text><path d="M741.717,496.914 C635.847,499.642 386.92,510.22 314,550 C296.247,559.685 281.829,577.245 271.809,592.478 " fill="none" style="stroke: #A80036; stroke-width: 1.0;"/><polygon fill="#A80036" points="269.101,596.704,277.3254,591.2855,271.7992,592.4945,270.5902,586.9684,269.101,596.704" style="stroke: #A80036; stroke-width: 1.0;"/><text fill="#000000" font-family="sans-serif" font-size="13" lengthAdjust="spacingAndGlyphs" textLength="51" x="315" y="563.5684">encount</text><path d="M741.647,497.098 C702.605,500.854 649.892,513.042 623,550 C602.344,578.388 643.309,597.317 683.052,608.439 " fill="none" style="stroke: #A80036; stroke-width: 1.0;"/><polygon fill="#A80036" points="687.888,609.757,680.2559,603.532,683.0638,608.4427,678.1531,611.2507,687.888,609.757" style="stroke: #A80036; stroke-width: 1.0;"/><text fill="#000000" font-family="sans-serif" font-size="13" lengthAdjust="spacingAndGlyphs" textLength="122" x="624" y="563.5684">trigger debug input</text><path d="M752.842,596.973 C760.407,576.416 771.316,546.772 779.358,524.919 " fill="none" style="stroke: #A80036; stroke-width: 1.0;"/><polygon fill="#A80036" points="781.131,520.101,774.268,527.1649,779.4036,524.7931,781.7754,529.9288,781.131,520.101" style="stroke: #A80036; stroke-width: 1.0;"/><text fill="#000000" font-family="sans-serif" font-size="13" lengthAdjust="spacingAndGlyphs" textLength="79" x="771" y="563.5684">cancel (prev)</text><path d="M741.78,499.061 C688.867,504.016 602.603,516.873 536,550 C514.706,560.591 494.464,578.013 479.42,592.948 " fill="none" style="stroke: #A80036; stroke-width: 1.0;"/><polygon fill="#A80036" points="475.709,596.686,484.8885,593.1171,479.2317,593.1376,479.2111,587.4808,475.709,596.686" style="stroke: #A80036; stroke-width: 1.0;"/><text fill="#000000" font-family="sans-serif" font-size="13" lengthAdjust="spacingAndGlyphs" textLength="72" x="537" y="563.5684">game event</text><path d="M403.399,596.915 C382.215,583.637 365.503,566.532 380,550 C403.188,523.558 631.072,505.958 736.72,499.156 " fill="none" style="stroke: #A80036; stroke-width: 1.0;"/><polygon fill="#A80036" points="741.965,498.82,732.7284,495.4015,736.9752,499.1386,733.2381,503.3853,741.965,498.82" style="stroke: #A80036; stroke-width: 1.0;"/><text fill="#000000" font-family="sans-serif" font-size="13" lengthAdjust="spacingAndGlyphs" textLength="121" x="381" y="563.5684">on complete  (prev)</text><path d="M838.372,502.076 C892.253,509.954 974.274,525.641 993,550 C1002.924,562.908 996.089,578.973 985.819,592.555 " fill="none" style="stroke: #A80036; stroke-width: 1.0;"/><polygon fill="#A80036" points="982.536,596.684,991.2675,592.1277,985.6473,592.7699,985.005,587.1496,982.536,596.684" style="stroke: #A80036; stroke-width: 1.0;"/><text fill="#000000" font-family="sans-serif" font-size="13" lengthAdjust="spacingAndGlyphs" textLength="72" x="999" y="563.5684">game event</text><path d="M924.9,596.973 C896.744,575.898 855.827,545.271 826.447,523.281 " fill="none" style="stroke: #A80036; stroke-width: 1.0;"/><polygon fill="#A80036" points="822.199,520.101,827.0078,528.6961,826.2021,523.0969,831.8013,522.2911,822.199,520.101" style="stroke: #A80036; stroke-width: 1.0;"/><text fill="#000000" font-family="sans-serif" font-size="13" lengthAdjust="spacingAndGlyphs" textLength="79" x="885" y="563.5684">cancel (prev)</text><path d="M1334.72,625.101 C1409.53,629.316 1540.68,641.671 1570,677 C1579.85,688.8658 1575.71,705.1233 1568.5,719.0875 " fill="none" style="stroke: #A80036; stroke-width: 1.0;"/><polygon fill="#A80036" points="1565.95,723.7256,1573.7877,717.7614,1568.3563,719.3427,1566.775,713.9114,1565.95,723.7256" style="stroke: #A80036; stroke-width: 1.0;"/><text fill="#000000" font-family="sans-serif" font-size="13" lengthAdjust="spacingAndGlyphs" textLength="94" x="1577" y="690.5684">item command</text><path d="M1507.8,723.8835 C1482.93,709.4303 1450.12,691.1707 1420,677 C1394.14,664.834 1364.73,653.057 1339.73,643.624 " fill="none" style="stroke: #A80036; stroke-width: 1.0;"/><polygon fill="#A80036" points="1334.79,641.769,1341.8104,648.6765,1339.4711,643.526,1344.6216,641.1868,1334.79,641.769" style="stroke: #A80036; stroke-width: 1.0;"/><text fill="#000000" font-family="sans-serif" font-size="13" lengthAdjust="spacingAndGlyphs" textLength="79" x="1454" y="690.5684">cancel (prev)</text><path d="M1334.61,622.821 C1494.28,622.836 1971.3,627.165 2117,677 C2144.29,686.3358 2171.17,704.7269 2190.89,720.4518 " fill="none" style="stroke: #A80036; stroke-width: 1.0;"/><polygon fill="#A80036" points="2195.24,723.9689,2190.755,715.2005,2191.3514,720.8258,2185.7261,721.4222,2195.24,723.9689" style="stroke: #A80036; stroke-width: 1.0;"/><text fill="#000000" font-family="sans-serif" font-size="13" lengthAdjust="spacingAndGlyphs" textLength="107" x="2152" y="690.5684">option command</text><path d="M2161.21,731.3084 C2122.95,720.7444 2072.54,706.7259 2028,694 C2002.17,686.6204 1996.42,681.8547 1970,677 C1739.23,634.595 1458.9,625.468 1339.9,623.519 " fill="none" style="stroke: #A80036; stroke-width: 1.0;"/><polygon fill="#A80036" points="1334.7,623.437,1343.6419,627.5652,1339.6995,623.5084,1343.7562,619.566,1334.7,623.437" style="stroke: #A80036; stroke-width: 1.0;"/><text fill="#000000" font-family="sans-serif" font-size="13" lengthAdjust="spacingAndGlyphs" textLength="79" x="2029" y="690.5684">cancel (prev)</text><path d="M1229.37,628.284 C1177.44,633.41 1095.79,641.237 1025,647 C977.043,650.904 625.823,641.818 593,677 C579.125,691.8717 592.646,707.9357 611.472,721.0159 " fill="none" style="stroke: #A80036; stroke-width: 1.0;"/><polygon fill="#A80036" points="615.825,723.9307,610.5734,715.5988,611.6708,721.1482,606.1214,722.2455,615.825,723.9307" style="stroke: #A80036; stroke-width: 1.0;"/><text fill="#000000" font-family="sans-serif" font-size="13" lengthAdjust="spacingAndGlyphs" textLength="94" x="594" y="690.5684">save command</text><path d="M698.411,723.9502 C723.246,707.8669 758.22,687.75 792,677 C812.361,670.52 1099.22,641.281 1224.34,628.741 " fill="none" style="stroke: #A80036; stroke-width: 1.0;"/><polygon fill="#A80036" points="1229.45,628.229,1220.0952,625.1489,1224.4751,628.7289,1220.895,633.1088,1229.45,628.229" style="stroke: #A80036; stroke-width: 1.0;"/><text fill="#000000" font-family="sans-serif" font-size="13" lengthAdjust="spacingAndGlyphs" textLength="190" x="793" y="690.5684">on save success |cancel (prev)</text><path d="M1334.85,624.289 C1465.29,628.014 1794.33,640.929 1827,677 C1837.43,688.5144 1833.18,704.9012 1825.76,719.0312 " fill="none" style="stroke: #A80036; stroke-width: 1.0;"/><polygon fill="#A80036" points="1823.14,723.7263,1831.0261,717.8264,1825.582,719.3632,1824.0452,713.9191,1823.14,723.7263" style="stroke: #A80036; stroke-width: 1.0;"/><text fill="#000000" font-family="sans-serif" font-size="13" lengthAdjust="spacingAndGlyphs" textLength="127" x="1834" y="690.5684">game end command</text><path d="M1770.87,723.8486 C1746.65,707.9348 1712.75,688.0605 1680,677 C1563.48,637.646 1418.59,626.887 1339.74,624.001 " fill="none" style="stroke: #A80036; stroke-width: 1.0;"/><polygon fill="#A80036" points="1334.64,623.822,1343.4976,628.1282,1339.6371,623.9934,1343.7718,620.1329,1334.64,623.822" style="stroke: #A80036; stroke-width: 1.0;"/><text fill="#000000" font-family="sans-serif" font-size="13" lengthAdjust="spacingAndGlyphs" textLength="79" x="1718" y="690.5684">cancel (prev)</text><path d="M1246.83,647.151 C1232.37,660.244 1220.72,677.1586 1229,694 C1234,704.1802 1241.95,712.9831 1250.73,720.3555 " fill="none" style="stroke: #A80036; stroke-width: 1.0;"/><polygon fill="#A80036" points="1255.09,723.8595,1250.5733,715.1074,1251.1901,720.7305,1245.5669,721.3473,1255.09,723.8595" style="stroke: #A80036; stroke-width: 1.0;"/><text fill="#000000" font-family="sans-serif" font-size="13" lengthAdjust="spacingAndGlyphs" textLength="93" x="1230" y="690.5684">skill command</text><path d="M1318.32,723.8476 C1326.86,710.1893 1333.8,692.7436 1328,677 C1324.59,667.736 1318.8,658.98 1312.47,651.321 " fill="none" style="stroke: #A80036; stroke-width: 1.0;"/><polygon fill="#A80036" points="1308.9,647.183,1311.7479,656.6111,1312.1651,650.9697,1317.8066,651.3869,1308.9,647.183" style="stroke: #A80036; stroke-width: 1.0;"/><text fill="#000000" font-family="sans-serif" font-size="13" lengthAdjust="spacingAndGlyphs" textLength="79" x="1332" y="690.5684">cancel (prev)</text><path d="M1229.38,628.51 C1177.47,633.805 1095.83,641.756 1025,647 C903.373,656.005 590.472,632.296 477,677 C453.746,686.1611 432.193,704.3237 416.608,719.9849 " fill="none" style="stroke: #A80036; stroke-width: 1.0;"/><polygon fill="#A80036" points="412.777,723.9057,421.9281,720.2647,416.2717,720.3298,416.2066,714.6733,412.777,723.9057" style="stroke: #A80036; stroke-width: 1.0;"/><text fill="#000000" font-family="sans-serif" font-size="13" lengthAdjust="spacingAndGlyphs" textLength="101" x="478" y="690.5684">equip command</text><path d="M368.595,723.9174 C356.835,708.9357 347.481,690.0965 360,677 C385.554,650.267 988.106,649.553 1025,647 C1093.51,642.259 1172.08,634.594 1224.13,629.205 " fill="none" style="stroke: #A80036; stroke-width: 1.0;"/><polygon fill="#A80036" points="1229.39,628.658,1220.0263,625.605,1224.4165,629.1723,1220.8492,633.5626,1229.39,628.658" style="stroke: #A80036; stroke-width: 1.0;"/><text fill="#000000" font-family="sans-serif" font-size="13" lengthAdjust="spacingAndGlyphs" textLength="79" x="361" y="690.5684">cancel (prev)</text><path d="M1229.41,634.328 C1194.76,643.066 1149.1,657.06 1112,677 C1090.48,688.5671 1069.09,705.6676 1052.78,720.1876 " fill="none" style="stroke: #A80036; stroke-width: 1.0;"/><polygon fill="#A80036" points="1048.75,723.8186,1058.1096,720.753,1052.46,720.4666,1052.7464,714.817,1048.75,723.8186" style="stroke: #A80036; stroke-width: 1.0;"/><text fill="#000000" font-family="sans-serif" font-size="13" lengthAdjust="spacingAndGlyphs" textLength="105" x="1113" y="690.5684">status command</text><path d="M1003.542,723.9336 C993.536,709.1436 985.812,690.5075 997,677 C1025.23,642.914 1149.07,630.178 1223.9,625.543 " fill="none" style="stroke: #A80036; stroke-width: 1.0;"/><polygon fill="#A80036" points="1229.2,625.223,1219.9762,621.7703,1224.209,625.5231,1220.4563,629.7559,1229.2,625.223" style="stroke: #A80036; stroke-width: 1.0;"/><text fill="#000000" font-family="sans-serif" font-size="13" lengthAdjust="spacingAndGlyphs" textLength="79" x="998" y="690.5684">cancel (prev)</text><path d="M63.2219,723.7463 C37.8452,700.804 6,663.871 6,623 C6,367 6,367 6,367 C6,276.138 699.352,249.265 900.133,243.388 " fill="none" style="stroke: #A80036; stroke-width: 1.0;"/><polygon fill="#A80036" points="905.357,243.237,896.2443,239.5009,900.3591,243.3827,896.4774,247.4976,905.357,243.237" style="stroke: #A80036; stroke-width: 1.0;"/><text fill="#000000" font-family="sans-serif" font-size="13" lengthAdjust="spacingAndGlyphs" textLength="16" x="7" y="500.0684">ok</text><path d="M203.383,643.841 C185.091,652.515 165.134,663.696 149,677 C134.5,688.9561 121.462,705.3927 111.723,719.4405 " fill="none" style="stroke: #A80036; stroke-width: 1.0;"/><polygon fill="#A80036" points="108.809,723.7158,117.1834,718.5323,111.6253,719.5844,110.5732,714.0262,108.809,723.7158" style="stroke: #A80036; stroke-width: 1.0;"/><text fill="#000000" font-family="sans-serif" font-size="13" lengthAdjust="spacingAndGlyphs" textLength="138" x="150" y="690.5684">game party is all dead</text><path d="M741.871,495.454 C600.949,494.982 193.989,502.013 112,597 C83.0168,630.578 84.3237,685.1211 88.6459,718.6479 " fill="none" style="stroke: #A80036; stroke-width: 1.0;"/><polygon fill="#A80036" points="89.3613,723.8419,92.0955,714.3802,88.6789,718.8887,84.1704,715.4721,89.3613,723.8419" style="stroke: #A80036; stroke-width: 1.0;"/><text fill="#000000" font-family="sans-serif" font-size="13" lengthAdjust="spacingAndGlyphs" textLength="72" x="113" y="627.0684">game event</text></g></svg>